<svg enable-background="new 0 0 6563.7 1583.1" viewBox="0 0 6563.7 1583.1" xmlns="http://www.w3.org/2000/svg"><path clip-rule="evenodd" d="m1064.6 0c90.5 1.5 177.9 17.9 262.1 50.7 136.1 53 222.5 152.2 268.4 289.3 29.1 86.9 43.8 176.3 46.8 267.6 1 29.2 10.5 52.7 30.9 73.9 70.5 73.2 82.4 168.9 33.8 258.5-20.9 38.7-47.9 70.9-85.9 94.7-12.8 8-22.4 24.4-28.7 39.1-39.8 92.9-85.1 182.7-142.9 266-47.2 68-100.9 129.8-170.8 175.6-48.3 31.6-100.4 55-157.8 63.6-93.9 14.1-180.5-7.3-260.7-57.3-78-48.7-136.2-116.6-187.2-191.7-54-79.4-97.5-164.4-134.1-253-8.9-21.5-21.9-37-41.3-50.5-93.7-65.3-158.1-218.5-44.1-342.2 19-20.6 31.7-41.8 32.8-71.3 3.4-88 16-174.7 42.8-259 36-113.5 97.9-207.3 202.5-268.9 70.4-41.4 147.5-64 227.8-75.5 35-5.1 70.4-6.5 105.6-9.6zm-.2 1518.5c13-1.5 23.9-1.5 34.2-4 31.6-7.6 64.8-12.1 94.2-25 75-33.1 132.8-88.3 181.7-153.2 63.3-84 110.8-177 150.5-273.9 13.6-33.3 33.6-59.9 60.5-83.4 21-18.3 40.8-39 56.7-61.7 32.3-46.2 37.2-96.8 9.9-147.2-14-25.8-33.4-48.7-49.2-73.6-7.5-11.9-15.5-25-17.7-38.4-5.2-32.3-6.6-65.1-10.5-97.6-9.8-81.8-27.1-161.8-59.8-237.9-40.5-94.3-103.5-167.4-199.2-209.5-52.4-23.1-107.8-33.6-164.4-39.4-27.8-2.9-55.6-5.3-85.4-8.1-.4 8.3-.9 14.4-.9 20.4-.2 123.3-.5 246.7-.5 370-.1 227.9-.3 455.9 0 683.8 0 11.7-3.4 17.2-14.4 21.5-42 16.7-83.5 34.5-125.2 52-3.9 1.6-7.6 3.9-13.8 7 7.2 3.3 11.8 5.5 16.4 7.4 40.2 16.8 80.4 33.9 120.9 50.1 11.6 4.6 16.4 10.2 16.2 23.5-.8 65.6-.2 131.1-.1 196.7-.1 6.1-.1 12.2-.1 20.5z" fill="#276092" fill-rule="evenodd"/><path clip-rule="evenodd" d="m1999.1 1205.4c-31.1-1.3-70.3-12-107.9-29.9-71.4-34-143.3-43.6-217.5-7.6-68.3 33.2-140.6 37.1-213.1 19.4-35-8.6-67.4-26.9-101.8-38.4-24.7-8.3-50.6-14.2-76.4-18.2-19.3-3-33.5-12.9-34-29.8-.5-17.5 13.7-30.3 34-31.1 36.5-1.4 69 13 102 25.3 31.6 11.8 61.9 28.6 94.4 36 60.1 13.6 119.9 9.1 176.2-19.3 35.5-17.9 74.1-24.5 113-26.4 53.4-2.7 102 16.8 149.9 37.5 29.3 12.7 59 23.2 91.4 23.4 31.9.2 46 9.2 46 29.3.2 20.4-14.4 29.9-56.2 29.8z" fill="#7a9c49" fill-rule="evenodd"/><path clip-rule="evenodd" d="m1999.3 1303.8c-31.3-1.4-70.5-12.1-108.1-30-71.4-34-143.3-43.5-217.5-7.5-68.3 33.2-140.6 37.1-213.1 19.3-35-8.6-67.4-26.9-101.8-38.4-24.7-8.3-50.6-14.1-76.4-18.2-19.3-3-33.5-13-33.9-29.9-.5-17.5 13.8-30.2 34.1-31 36.5-1.4 69 13 102 25.4 31.6 11.8 61.9 28.6 94.4 36 60.1 13.6 119.9 9 176.2-19.3 35.1-17.7 73.1-24.1 111.5-26.3 54-3 103.1 16.6 151.5 37.5 29.3 12.7 59 23.2 91.4 23.3 31.8.2 46 9.3 45.9 29.4-.1 20.4-14.6 29.8-56.2 29.7z" fill="#7a9c49" fill-rule="evenodd"/><path clip-rule="evenodd" d="m1999.3 1402.2c-31.3-1.4-70.5-12.1-108.1-30-71.4-34-143.3-43.5-217.5-7.5-68.3 33.2-140.6 37.1-213.1 19.3-35-8.6-67.4-26.9-101.8-38.4-24.7-8.3-50.6-14.1-76.4-18.2-19.3-3-33.5-13-33.9-29.9-.5-17.5 13.8-30.2 34.1-31 36.5-1.4 69 13 102 25.4 31.6 11.8 61.9 28.6 94.4 36 60.1 13.6 119.9 9 176.2-19.3 35.1-17.7 73.1-24.1 111.5-26.3 54-3 103.1 16.6 151.5 37.5 29.3 12.7 59 23.2 91.4 23.3 31.8.2 46 9.3 45.9 29.4-.1 20.4-14.6 29.8-56.2 29.7z" fill="#7a9c49" fill-rule="evenodd"/><path clip-rule="evenodd" d="m98.4 835.2c-1.4 60.5-11.2 110.5-38.7 155.8-11.9 19.6-34.4 23.4-48.3 8.2-10.5-11.6-9.8-24.2-2.7-37.5 15.7-29 25.9-59.4 28.8-92.9 4.4-51.5-5.7-99-31.4-143.4-9.9-17.2-7.8-33.3 5.9-42.9 13.9-9.7 32.6-7.3 41.8 9.2 13.3 23.9 26.2 48.8 34 74.8 7.5 24.6 8.1 51.2 10.6 68.7z" fill="#7a9c49" fill-rule="evenodd"/><path clip-rule="evenodd" d="m216.8 845.8c-1.1 49.9-10.9 99.3-37.8 144.3-8.9 14.9-21 20.9-34.7 17.4-19.5-4.9-27.7-24.9-17.1-44.7 16.6-31.1 27.1-63.5 29.5-99.1 3.3-48.7-6.6-93.8-30.4-136.1-11-19.5-9.7-35.5 4.9-45.4 15.2-10.3 33-5.6 44.7 13.6 27.8 45.3 39.7 95.4 40.9 150z" fill="#7a9c49" fill-rule="evenodd"/><path clip-rule="evenodd" d="m333.2 845.9c-2.8 47.1-10.1 93-33.5 135-.8 1.4-1.5 2.7-2.3 4.1-11.7 21.4-27.2 28.6-43.8 20.2-16.5-8.4-20.3-25.5-8.5-46.9 31.1-56.3 33.9-116 19.8-176.9-4.5-19.3-15-37.5-24.3-55.4-9.5-18.3-7.9-34.6 6.5-44.1 14.5-9.5 32-5.7 42.8 11.6 24.7 39.4 38.1 82.7 41.3 129.1.5 7.8 1.3 15.6 2 23.3z" fill="#7a9c49" fill-rule="evenodd"/><g fill="#276092"><path d="m2498.5 524.2c-3.6 1.6-6.9 3.1-9.9 4.5-2.9 1.4-6.8 2.8-11.5 4.4-4 1.3-8.4 2.3-13.1 3.2s-9.9 1.3-15.6 1.3c-10.7 0-20.4-1.5-29.2-4.5s-16.4-7.7-22.8-14.1c-6.3-6.3-11.3-14.3-14.9-23.9-3.6-9.7-5.4-20.9-5.4-33.8 0-12.2 1.7-23 5.2-32.6 3.4-9.6 8.4-17.7 14.9-24.3 6.3-6.4 13.9-11.3 22.8-14.7s18.8-5.1 29.6-5.1c7.9 0 15.8 1 23.7 2.9s16.7 5.3 26.3 10.1v23.3h-1.5c-8.1-6.8-16.2-11.8-24.2-14.9s-16.6-4.7-25.7-4.7c-7.5 0-14.2 1.2-20.2 3.6s-11.3 6.2-16 11.3c-4.6 5-8.1 11.2-10.7 18.8-2.5 7.6-3.8 16.3-3.8 26.2 0 10.4 1.4 19.3 4.2 26.8s6.4 13.5 10.9 18.2c4.6 4.9 10 8.5 16.2 10.9 6.2 2.3 12.7 3.5 19.6 3.5 9.4 0 18.3-1.6 26.6-4.9 8.3-3.2 16-8.1 23.2-14.6h1.4v23.1z"/><path d="m2619.1 479.6c0 18-4.6 32.3-13.9 42.7s-21.6 15.7-37.2 15.7c-15.7 0-28.1-5.2-37.3-15.7-9.2-10.4-13.8-24.7-13.8-42.7s4.6-32.3 13.8-42.8 21.7-15.7 37.3-15.7c15.5 0 27.9 5.2 37.2 15.7s13.9 24.7 13.9 42.8zm-19.2 0c0-14.3-2.8-25-8.4-32s-13.4-10.5-23.4-10.5c-10.1 0-18 3.5-23.5 10.5-5.6 7-8.4 17.6-8.4 32 0 13.9 2.8 24.4 8.4 31.6s13.4 10.8 23.5 10.8c9.9 0 17.7-3.6 23.3-10.7 5.7-7.2 8.5-17.7 8.5-31.7z"/><path d="m2666.8 534.9h-18.6v-154.3h18.6z"/><path d="m2722.5 534.9h-18.6v-154.3h18.6z"/><path d="m2852.1 481.4h-81.6c0 6.8 1 12.7 3.1 17.8 2 5.1 4.9 9.2 8.4 12.4 3.4 3.2 7.5 5.6 12.2 7.1 4.7 1.6 9.9 2.4 15.6 2.4 7.5 0 15.1-1.5 22.8-4.5 7.6-3 13.1-6 16.3-8.9h1v20.3c-6.3 2.6-12.7 4.9-19.2 6.6-6.5 1.8-13.4 2.7-20.6 2.7-18.4 0-32.7-5-43-14.9s-15.5-24.1-15.5-42.4c0-18.1 4.9-32.5 14.8-43.1s22.9-16 39-16c14.9 0 26.5 4.4 34.5 13.1 8.1 8.7 12.1 21.1 12.1 37.2v10.2zm-18.1-14.2c-.1-9.8-2.5-17.3-7.4-22.7s-12.2-8-22.2-8-17.9 2.9-23.8 8.8-9.3 13.2-10.1 21.9z"/><path d="m2970.2 522.3c0 18.8-4.3 32.5-12.8 41.3s-21.6 13.2-39.4 13.2c-5.9 0-11.6-.4-17.2-1.2s-11.1-2-16.5-3.5v-19h1c3 1.2 7.9 2.7 14.5 4.4 6.6 1.8 13.2 2.6 19.8 2.6 6.3 0 11.6-.8 15.8-2.3s7.4-3.6 9.7-6.3c2.3-2.6 4-5.7 5-9.3s1.5-7.7 1.5-12.2v-10.1c-5.6 4.5-11 7.8-16.1 10.1-5.1 2.2-11.6 3.3-19.6 3.3-13.2 0-23.7-4.8-31.5-14.3s-11.6-23-11.6-40.4c0-9.5 1.3-17.7 4-24.6s6.3-12.9 11-17.9c4.3-4.7 9.5-8.3 15.7-11 6.1-2.6 12.3-3.9 18.3-3.9 6.4 0 11.8.6 16.1 1.9s8.9 3.3 13.7 5.9l1.2-4.8h17.4zm-18.7-17.9v-60.4c-5-2.2-9.6-3.8-13.8-4.8-4.3-1-8.5-1.4-12.7-1.4-10.2 0-18.3 3.4-24.2 10.3s-8.8 16.9-8.8 29.9c0 12.4 2.2 21.8 6.5 28.3 4.4 6.4 11.6 9.6 21.7 9.6 5.4 0 10.9-1 16.3-3.1 5.5-2.1 10.5-4.9 15-8.4z"/><path d="m3099.5 481.4h-81.6c0 6.8 1 12.7 3.1 17.8 2 5.1 4.9 9.2 8.4 12.4 3.4 3.2 7.5 5.6 12.2 7.1 4.7 1.6 9.9 2.4 15.6 2.4 7.5 0 15.1-1.5 22.8-4.5 7.6-3 13.1-6 16.3-8.9h1v20.3c-6.3 2.6-12.7 4.9-19.2 6.6-6.5 1.8-13.4 2.7-20.6 2.7-18.4 0-32.7-5-43-14.9s-15.5-24.1-15.5-42.4c0-18.1 4.9-32.5 14.8-43.1s22.9-16 39-16c14.9 0 26.5 4.4 34.5 13.1 8.1 8.7 12.1 21.1 12.1 37.2v10.2zm-18.1-14.2c-.1-9.8-2.5-17.3-7.4-22.7s-12.2-8-22.2-8-17.9 2.9-23.8 8.8-9.3 13.2-10.1 21.9z"/><path d="m3293.5 479.6c0 18-4.6 32.3-13.9 42.7s-21.6 15.7-37.2 15.7c-15.7 0-28.1-5.2-37.3-15.7-9.2-10.4-13.8-24.7-13.8-42.7s4.6-32.3 13.8-42.8 21.7-15.7 37.3-15.7c15.5 0 27.9 5.2 37.2 15.7s13.9 24.7 13.9 42.8zm-19.2 0c0-14.3-2.8-25-8.4-32s-13.4-10.5-23.4-10.5c-10.1 0-18 3.5-23.5 10.5-5.6 7-8.4 17.6-8.4 32 0 13.9 2.8 24.4 8.4 31.6s13.4 10.8 23.5 10.8c9.9 0 17.7-3.6 23.3-10.7 5.7-7.2 8.5-17.7 8.5-31.7z"/><path d="m3382 398.7h-1c-2-.6-4.7-1.2-8-1.8s-6.2-.9-8.7-.9c-8 0-13.8 1.8-17.4 5.3s-5.4 9.9-5.4 19.2v3.8h33.6v15.7h-33v95.1h-18.6v-95.1h-12.6v-15.7h12.6v-3.7c0-13.2 3.3-23.2 9.8-30.3 6.5-7 16-10.6 28.4-10.6 4.2 0 7.9.2 11.3.6 3.3.4 6.4.9 9.2 1.4v17z"/><path d="m3583 534.9h-20.9l-14.5-41.1h-63.8l-14.5 41.1h-19.9l53.7-147.6h26.2zm-41.4-58-25.9-72.5-26 72.5z"/><path d="m3694.7 534.9h-18.6v-12.3c-6.3 5-12.3 8.8-18 11.4-5.8 2.6-12.1 4-19 4-11.6 0-20.7-3.6-27.2-10.7s-9.7-17.5-9.7-31.3v-71.9h18.6v63c0 5.6.3 10.4.8 14.4s1.7 7.4 3.4 10.3c1.8 2.9 4.1 5 6.9 6.3s7 2 12.4 2c4.8 0 10.1-1.3 15.8-3.8s11.1-5.7 16-9.6v-82.7h18.6z"/><path d="m3821.2 534.9h-18.6v-11.6c-5.4 4.6-10.9 8.2-16.8 10.8-5.8 2.6-12.1 3.9-18.9 3.9-13.2 0-23.7-5.1-31.5-15.3s-11.6-24.3-11.6-42.3c0-9.4 1.3-17.7 4-25.1 2.7-7.3 6.3-13.6 10.9-18.7 4.5-5 9.7-8.9 15.7-11.5s12.2-4 18.6-4c5.8 0 11 .6 15.5 1.8s9.2 3.1 14.2 5.7v-48h18.6v154.3zm-18.6-27.3v-63.5c-5-2.2-9.5-3.8-13.5-4.7s-8.3-1.3-13-1.3c-10.4 0-18.6 3.6-24.4 10.9s-8.7 17.6-8.7 30.9c0 13.2 2.2 23.1 6.7 30 4.5 6.8 11.7 10.3 21.6 10.3 5.3 0 10.6-1.2 16.1-3.5 5.4-2.4 10.5-5.4 15.2-9.1z"/><path d="m3877.9 405.6h-21v-19.3h21zm-1.2 129.3h-18.6v-110.8h18.6z"/><path d="m4008 479.6c0 18-4.6 32.3-13.9 42.7s-21.6 15.7-37.2 15.7c-15.7 0-28.1-5.2-37.3-15.7-9.2-10.4-13.8-24.7-13.8-42.7s4.6-32.3 13.8-42.8 21.7-15.7 37.3-15.7c15.5 0 27.9 5.2 37.2 15.7 9.2 10.5 13.9 24.7 13.9 42.8zm-19.3 0c0-14.3-2.8-25-8.4-32s-13.4-10.5-23.4-10.5c-10.1 0-18 3.5-23.5 10.5-5.6 7-8.4 17.6-8.4 32 0 13.9 2.8 24.4 8.4 31.6s13.4 10.8 23.5 10.8c9.9 0 17.7-3.6 23.3-10.7 5.7-7.2 8.5-17.7 8.5-31.7z"/><path d="m4055.6 534.9h-18.6v-154.3h18.6z"/><path d="m4186.9 479.6c0 18-4.6 32.3-13.9 42.7s-21.6 15.7-37.2 15.7c-15.7 0-28.1-5.2-37.3-15.7-9.2-10.4-13.8-24.7-13.8-42.7s4.6-32.3 13.8-42.8 21.7-15.7 37.3-15.7c15.5 0 27.9 5.2 37.2 15.7s13.9 24.7 13.9 42.8zm-19.2 0c0-14.3-2.8-25-8.4-32s-13.4-10.5-23.4-10.5c-10.1 0-18 3.5-23.5 10.5-5.6 7-8.4 17.6-8.4 32 0 13.9 2.8 24.4 8.4 31.6s13.4 10.8 23.5 10.8c9.9 0 17.7-3.6 23.3-10.7 5.6-7.2 8.5-17.7 8.5-31.7z"/><path d="m4305.6 522.3c0 18.8-4.3 32.5-12.8 41.3s-21.6 13.2-39.4 13.2c-5.9 0-11.6-.4-17.2-1.2s-11.1-2-16.5-3.5v-19h1c3 1.2 7.9 2.7 14.5 4.4 6.6 1.8 13.2 2.6 19.8 2.6 6.3 0 11.6-.8 15.8-2.3s7.4-3.6 9.7-6.3c2.3-2.6 4-5.7 5-9.3s1.5-7.7 1.5-12.2v-10.1c-5.6 4.5-11 7.8-16.1 10.1-5.1 2.2-11.6 3.3-19.6 3.3-13.2 0-23.7-4.8-31.5-14.3s-11.6-23-11.6-40.4c0-9.5 1.3-17.7 4-24.6s6.3-12.9 11-17.9c4.3-4.7 9.5-8.3 15.7-11 6.1-2.6 12.3-3.9 18.3-3.9 6.4 0 11.8.6 16.1 1.9s8.9 3.3 13.7 5.9l1.2-4.8h17.4zm-18.7-17.9v-60.4c-5-2.2-9.6-3.8-13.8-4.8-4.3-1-8.5-1.4-12.7-1.4-10.2 0-18.3 3.4-24.2 10.3s-8.8 16.9-8.8 29.9c0 12.4 2.2 21.8 6.5 28.3 4.4 6.4 11.6 9.6 21.7 9.6 5.4 0 10.9-1 16.3-3.1s10.5-4.9 15-8.4z"/><path d="m4362.3 405.6h-21v-19.3h21zm-1.2 129.3h-18.6v-110.8h18.6z"/><path d="m4477 503c0 10.1-4.2 18.4-12.5 24.9-8.4 6.5-19.8 9.7-34.2 9.7-8.2 0-15.7-1-22.6-2.9-6.8-1.9-12.6-4.1-17.2-6.4v-20.9h1c5.9 4.4 12.4 7.9 19.6 10.6 7.2 2.6 14.1 3.9 20.7 3.9 8.2 0 14.6-1.3 19.2-4 4.6-2.6 6.9-6.8 6.9-12.5 0-4.4-1.3-7.7-3.8-9.9s-7.3-4.2-14.5-5.8c-2.6-.6-6.1-1.3-10.4-2.1s-8.1-1.7-11.6-2.6c-9.7-2.6-16.6-6.4-20.7-11.4s-6.1-11.1-6.1-18.4c0-4.6.9-8.9 2.8-12.9s4.7-7.6 8.6-10.8c3.7-3.1 8.4-5.6 14.1-7.4s12.1-2.7 19.2-2.7c6.6 0 13.3.8 20.1 2.4s12.4 3.6 16.9 5.9v19.9h-1c-4.8-3.5-10.5-6.5-17.3-8.9s-13.5-3.6-20-3.6c-6.8 0-12.6 1.3-17.2 3.9-4.7 2.6-7 6.5-7 11.6 0 4.6 1.4 8 4.3 10.3 2.8 2.3 7.3 4.2 13.5 5.7 3.4.8 7.3 1.6 11.5 2.4 4.3.8 7.8 1.5 10.7 2.2 8.7 2 15.3 5.4 20 10.2 4.7 5 7 11.5 7 19.6z"/><path d="m4561.2 533.9c-3.5.9-7.3 1.7-11.5 2.3-4.1.6-7.8.9-11.1.9-11.3 0-19.9-3-25.8-9.1s-8.8-15.8-8.8-29.2v-58.9h-12.6v-15.7h12.6v-31.8h18.6v31.8h38.5v15.7h-38.5v50.5c0 5.8.1 10.4.4 13.6.3 3.3 1.2 6.3 2.8 9.2 1.5 2.6 3.5 4.6 6 5.8s6.4 1.8 11.6 1.8c3 0 6.2-.4 9.5-1.3s5.7-1.6 7.1-2.2h1v16.6z"/><path d="m4662.8 503c0 10.1-4.2 18.4-12.5 24.9-8.4 6.5-19.8 9.7-34.2 9.7-8.2 0-15.7-1-22.6-2.9-6.8-1.9-12.6-4.1-17.2-6.4v-20.9h1c5.9 4.4 12.4 7.9 19.6 10.6 7.2 2.6 14.1 3.9 20.7 3.9 8.2 0 14.6-1.3 19.2-4 4.6-2.6 6.9-6.8 6.9-12.5 0-4.4-1.3-7.7-3.8-9.9s-7.3-4.2-14.5-5.8c-2.6-.6-6.1-1.3-10.4-2.1s-8.1-1.7-11.6-2.6c-9.7-2.6-16.6-6.4-20.7-11.4s-6.1-11.1-6.1-18.4c0-4.6.9-8.9 2.8-12.9s4.7-7.6 8.6-10.8c3.7-3.1 8.4-5.6 14.1-7.4s12.1-2.7 19.2-2.7c6.6 0 13.3.8 20.1 2.4s12.4 3.6 16.9 5.9v19.9h-1c-4.8-3.5-10.5-6.5-17.3-8.9s-13.5-3.6-20-3.6c-6.8 0-12.6 1.3-17.2 3.9-4.7 2.6-7 6.5-7 11.6 0 4.6 1.4 8 4.3 10.3 2.8 2.3 7.3 4.2 13.5 5.7 3.4.8 7.3 1.6 11.5 2.4 4.3.8 7.8 1.5 10.7 2.2 8.7 2 15.3 5.4 20 10.2 4.7 5 7 11.5 7 19.6z"/><path d="m4846.9 534.9h-18.5v-11.8c-1.7 1.1-3.9 2.7-6.7 4.7s-5.5 3.6-8.2 4.8c-3.1 1.5-6.7 2.8-10.7 3.8s-8.8 1.5-14.2 1.5c-10 0-18.4-3.3-25.4-9.9-6.9-6.6-10.4-15-10.4-25.3 0-8.4 1.8-15.2 5.4-20.4s8.7-9.3 15.4-12.2c6.7-3 14.8-5 24.3-6 9.5-1.1 19.6-1.8 30.4-2.4v-2.9c0-4.2-.7-7.7-2.2-10.5s-3.6-5-6.4-6.5c-2.6-1.5-5.8-2.5-9.5-3.1-3.7-.5-7.6-.8-11.6-.8-4.9 0-10.3.6-16.4 1.9-6 1.3-12.2 3.2-18.6 5.6h-1v-18.9c3.6-1 8.9-2.1 15.8-3.3s13.6-1.8 20.3-1.8c7.8 0 14.6.6 20.4 1.9s10.8 3.5 15 6.6c4.2 3 7.3 7 9.5 11.8s3.3 10.8 3.3 17.9zm-18.5-27.3v-30.8c-5.7.3-12.4.8-20.1 1.5s-13.8 1.6-18.3 2.9c-5.4 1.5-9.7 3.9-13 7.1s-5 7.6-5 13.2c0 6.3 1.9 11.1 5.7 14.3s9.7 4.8 17.5 4.8c6.5 0 12.5-1.3 17.9-3.8 5.6-2.6 10.6-5.6 15.3-9.2z"/><path d="m4975.4 534.9h-18.6v-63c0-5.1-.3-9.9-.9-14.3-.6-4.5-1.7-7.9-3.3-10.5-1.7-2.8-4-4.8-7.1-6.2s-7.1-2-12.1-2c-5.1 0-10.4 1.3-16 3.8s-10.9 5.7-16 9.6v82.7h-18.6v-110.9h18.6v12.3c5.8-4.8 11.8-8.6 18-11.3s12.6-4.1 19.1-4.1c12 0 21.1 3.6 27.4 10.8s9.4 17.6 9.4 31.1v72z"/><path d="m5101.1 534.9h-18.6v-11.6c-5.4 4.6-10.9 8.2-16.8 10.8-5.8 2.6-12.1 3.9-18.9 3.9-13.2 0-23.7-5.1-31.5-15.3s-11.6-24.3-11.6-42.3c0-9.4 1.3-17.7 4-25.1 2.7-7.3 6.3-13.6 10.9-18.7 4.5-5 9.7-8.9 15.7-11.5s12.2-4 18.6-4c5.8 0 11 .6 15.5 1.8s9.2 3.1 14.2 5.7v-48h18.6v154.3zm-18.7-27.3v-63.5c-5-2.2-9.5-3.8-13.5-4.7s-8.3-1.3-13-1.3c-10.4 0-18.6 3.6-24.4 10.9s-8.7 17.6-8.7 30.9c0 13.2 2.2 23.1 6.7 30 4.5 6.8 11.7 10.3 21.6 10.3 5.3 0 10.6-1.2 16.1-3.5 5.5-2.4 10.5-5.4 15.2-9.1z"/><path d="m2491.8 695.8c0 5.7-1.3 11.4-4 17.1-2.7 5.6-6.4 10.4-11.3 14.3-5.3 4.2-11.4 7.5-18.5 9.9-7 2.4-15.5 3.6-25.4 3.6-10.6 0-20.2-1-28.7-3s-17.1-4.9-25.9-8.8v-24.6h1.4c7.5 6.2 16.1 11 25.9 14.4s19 5.1 27.6 5.1c12.2 0 21.6-2.3 28.4-6.8 6.8-4.6 10.2-10.6 10.2-18.2 0-6.5-1.6-11.4-4.8-14.5s-8.1-5.5-14.6-7.2c-5-1.3-10.3-2.4-16.1-3.3s-11.9-1.9-18.4-3.3c-13.1-2.8-22.8-7.5-29.1-14.2s-9.5-15.4-9.5-26.2c0-12.4 5.2-22.5 15.7-30.4 10.4-7.9 23.7-11.8 39.8-11.8 10.4 0 19.9 1 28.5 3 8.7 2 16.3 4.4 23 7.3v23.2h-1.4c-5.6-4.8-13-8.7-22.2-11.8s-18.5-4.7-28.1-4.7c-10.5 0-19 2.2-25.3 6.5-6.4 4.4-9.6 10-9.6 16.9 0 6.1 1.6 11 4.8 14.5s8.8 6.2 16.8 8c4.2.9 10.2 2 18 3.4 7.8 1.3 14.4 2.7 19.8 4.1 11 2.9 19.2 7.3 24.8 13.2 5.4 5.5 8.2 13.7 8.2 24.3z"/><path d="m2619.2 681.2c0 9-1.3 17.2-3.9 24.6s-6.2 13.7-10.9 18.9c-4.4 4.9-9.5 8.7-15.4 11.4s-12.2 4-18.8 4c-5.8 0-11-.6-15.6-1.9-4.7-1.3-9.4-3.2-14.2-5.8v46.4h-18.6v-151.6h18.6v11.6c5-4.2 10.5-7.6 16.7-10.5 6.2-2.8 12.8-4.2 19.8-4.2 13.3 0 23.7 5 31.2 15.1 7.4 10.1 11.1 24.1 11.1 42zm-19.2.5c0-13.3-2.3-23.3-6.8-29.9-4.6-6.6-11.6-9.9-21-9.9-5.4 0-10.7 1.2-16.2 3.5-5.4 2.3-10.6 5.4-15.6 9.1v62.8c5.3 2.4 9.8 4 13.6 4.9s8.1 1.3 12.9 1.3c10.4 0 18.5-3.5 24.3-10.5 5.9-7.2 8.8-17.6 8.8-31.3z"/><path d="m2741 684.5h-81.6c0 6.8 1 12.7 3.1 17.8 2 5.1 4.9 9.2 8.4 12.4 3.4 3.2 7.5 5.6 12.2 7.1 4.7 1.6 9.9 2.4 15.6 2.4 7.5 0 15.1-1.5 22.8-4.5 7.6-3 13.1-6 16.3-8.9h1v20.3c-6.3 2.6-12.7 4.9-19.2 6.6-6.5 1.8-13.4 2.7-20.6 2.7-18.4 0-32.7-5-43-14.9s-15.5-24.1-15.5-42.4c0-18.1 4.9-32.5 14.8-43.1s22.9-16 39-16c14.9 0 26.5 4.4 34.5 13.1 8.1 8.7 12.1 21.1 12.1 37.2v10.2zm-18.2-14.3c-.1-9.8-2.5-17.3-7.4-22.7s-12.2-8-22.2-8-17.9 2.9-23.8 8.8-9.3 13.2-10.1 21.9z"/><path d="m2861.9 684.5h-81.6c0 6.8 1 12.7 3.1 17.8 2 5.1 4.9 9.2 8.4 12.4 3.4 3.2 7.5 5.6 12.2 7.1 4.7 1.6 9.9 2.4 15.6 2.4 7.5 0 15.1-1.5 22.8-4.5 7.6-3 13.1-6 16.3-8.9h1v20.3c-6.3 2.6-12.7 4.9-19.2 6.6-6.5 1.8-13.4 2.7-20.6 2.7-18.4 0-32.7-5-43-14.9s-15.5-24.1-15.5-42.4c0-18.1 4.9-32.5 14.8-43.1s22.9-16 39-16c14.9 0 26.5 4.4 34.5 13.1 8.1 8.7 12.1 21.1 12.1 37.2v10.2zm-18.1-14.3c-.1-9.8-2.5-17.3-7.4-22.7s-12.2-8-22.2-8-17.9 2.9-23.8 8.8-9.3 13.2-10.1 21.9z"/><path d="m2972.1 731c-6.2 3-12.1 5.3-17.7 6.9-5.6 1.7-11.5 2.5-17.8 2.5-8 0-15.3-1.2-22-3.5s-12.4-5.9-17.2-10.7-8.6-10.8-11.2-18c-2.6-7.3-4-15.8-4-25.5 0-18.1 5-32.3 14.9-42.6s23.1-15.5 39.4-15.5c6.3 0 12.6.9 18.7 2.7s11.7 4 16.8 6.5v20.7h-1c-5.7-4.4-11.5-7.8-17.6-10.2-6-2.4-11.9-3.6-17.7-3.6-10.6 0-18.9 3.6-25 10.7s-9.2 17.5-9.2 31.3c0 13.4 3 23.6 9 30.8s14.4 10.8 25.2 10.8c3.8 0 7.6-.5 11.5-1.5s7.4-2.3 10.5-3.9c2.7-1.4 5.3-2.9 7.6-4.4 2.4-1.6 4.3-2.9 5.7-4h1v20.5z"/><path d="m3088.5 737.9h-18.6v-63c0-5.1-.3-9.9-.9-14.3-.6-4.5-1.7-7.9-3.3-10.5-1.7-2.8-4-4.8-7.1-6.2s-7.1-2-12.1-2c-5.1 0-10.4 1.3-16 3.8s-10.9 5.7-16 9.6v82.7h-18.6v-154.4h18.6v55.8c5.8-4.8 11.8-8.6 18-11.3s12.6-4.1 19.1-4.1c12 0 21.1 3.6 27.4 10.8s9.4 17.6 9.4 31.1v72z"/><path d="m3183.1 682.3h-61.9v-17.9h61.9z"/><path d="m3311.5 737.9h-93.4v-147.6h19.6v130.2h73.8z"/><path d="m3415.7 737.9h-18.5v-11.8c-1.7 1.1-3.9 2.7-6.7 4.7s-5.5 3.6-8.2 4.8c-3.1 1.5-6.7 2.8-10.7 3.8s-8.8 1.5-14.2 1.5c-10 0-18.4-3.3-25.4-9.9-6.9-6.6-10.4-15-10.4-25.3 0-8.4 1.8-15.2 5.4-20.4s8.7-9.3 15.4-12.2c6.7-3 14.8-5 24.3-6 9.5-1.1 19.6-1.8 30.4-2.4v-2.9c0-4.2-.7-7.7-2.2-10.5s-3.6-5-6.4-6.5c-2.6-1.5-5.8-2.5-9.5-3.1-3.7-.5-7.6-.8-11.6-.8-4.9 0-10.3.6-16.4 1.9-6 1.3-12.2 3.2-18.6 5.6h-1v-18.9c3.6-1 8.9-2.1 15.8-3.3s13.6-1.8 20.3-1.8c7.8 0 14.6.6 20.4 1.9s10.8 3.5 15 6.6c4.2 3 7.3 7 9.5 11.8s3.3 10.8 3.3 17.9zm-18.6-27.3v-30.8c-5.7.3-12.4.8-20.1 1.5s-13.8 1.6-18.3 2.9c-5.4 1.5-9.7 3.9-13 7.1s-5 7.6-5 13.2c0 6.3 1.9 11.1 5.7 14.3s9.7 4.8 17.5 4.8c6.5 0 12.5-1.3 17.9-3.8 5.7-2.5 10.7-5.6 15.3-9.2z"/><path d="m3544.1 737.9h-18.6v-63c0-5.1-.3-9.9-.9-14.3-.6-4.5-1.7-7.9-3.3-10.5-1.7-2.8-4-4.8-7.1-6.2s-7.1-2-12.1-2c-5.1 0-10.4 1.3-16 3.8s-10.9 5.7-16 9.6v82.7h-18.6v-110.8h18.6v12.3c5.8-4.8 11.8-8.6 18-11.3s12.6-4.1 19.1-4.1c12 0 21.1 3.6 27.4 10.8s9.4 17.6 9.4 31.1v71.9z"/><path d="m3669.8 725.3c0 18.8-4.3 32.5-12.8 41.3s-21.6 13.2-39.4 13.2c-5.9 0-11.6-.4-17.2-1.2s-11.1-2-16.5-3.5v-19h1c3 1.2 7.9 2.7 14.5 4.4 6.6 1.8 13.2 2.6 19.8 2.6 6.3 0 11.6-.8 15.8-2.3s7.4-3.6 9.7-6.3c2.3-2.6 4-5.7 5-9.3s1.5-7.7 1.5-12.2v-10.1c-5.6 4.5-11 7.8-16.1 10.1-5.1 2.2-11.6 3.3-19.6 3.3-13.2 0-23.7-4.8-31.5-14.3s-11.6-23-11.6-40.4c0-9.5 1.3-17.7 4-24.6s6.3-12.9 11-17.9c4.3-4.7 9.5-8.3 15.7-11 6.1-2.6 12.3-3.9 18.3-3.9 6.4 0 11.8.6 16.1 1.9s8.9 3.3 13.7 5.9l1.2-4.8h17.4zm-18.6-17.8v-60.4c-5-2.2-9.6-3.8-13.8-4.8-4.3-1-8.5-1.4-12.7-1.4-10.2 0-18.3 3.4-24.2 10.3s-8.8 16.9-8.8 29.9c0 12.4 2.2 21.8 6.5 28.3 4.4 6.4 11.6 9.6 21.7 9.6 5.4 0 10.9-1 16.3-3.1s10.4-4.9 15-8.4z"/><path d="m3798.3 737.9h-18.6v-12.3c-6.3 5-12.3 8.8-18 11.4-5.8 2.6-12.1 4-19 4-11.6 0-20.7-3.6-27.2-10.7s-9.7-17.5-9.7-31.3v-71.9h18.6v63c0 5.6.3 10.4.8 14.4s1.7 7.4 3.4 10.3c1.8 2.9 4.1 5 6.9 6.3s7 2 12.4 2c4.8 0 10.1-1.3 15.8-3.8s11.1-5.7 16-9.6v-82.7h18.6z"/><path d="m3921 737.9h-18.5v-11.8c-1.7 1.1-3.9 2.7-6.7 4.7s-5.5 3.6-8.2 4.8c-3.1 1.5-6.7 2.8-10.7 3.8s-8.8 1.5-14.2 1.5c-10 0-18.4-3.3-25.4-9.9-6.9-6.6-10.4-15-10.4-25.3 0-8.4 1.8-15.2 5.4-20.4s8.7-9.3 15.4-12.2c6.7-3 14.8-5 24.3-6 9.5-1.1 19.6-1.8 30.4-2.4v-2.9c0-4.2-.7-7.7-2.2-10.5s-3.6-5-6.4-6.5c-2.6-1.5-5.8-2.5-9.5-3.1-3.7-.5-7.6-.8-11.6-.8-4.9 0-10.3.6-16.4 1.9-6 1.3-12.2 3.2-18.6 5.6h-1v-18.9c3.6-1 8.9-2.1 15.8-3.3s13.6-1.8 20.3-1.8c7.8 0 14.6.6 20.4 1.9s10.8 3.5 15 6.6c4.2 3 7.3 7 9.5 11.8s3.3 10.8 3.3 17.9zm-18.5-27.3v-30.8c-5.7.3-12.4.8-20.1 1.5s-13.8 1.6-18.3 2.9c-5.4 1.5-9.7 3.9-13 7.1s-5 7.6-5 13.2c0 6.3 1.9 11.1 5.7 14.3s9.7 4.8 17.5 4.8c6.5 0 12.5-1.3 17.9-3.8 5.6-2.5 10.7-5.6 15.3-9.2z"/><path d="m4046.7 725.3c0 18.8-4.3 32.5-12.8 41.3s-21.6 13.2-39.4 13.2c-5.9 0-11.6-.4-17.2-1.2s-11.1-2-16.5-3.5v-19h1c3 1.2 7.9 2.7 14.5 4.4 6.6 1.8 13.2 2.6 19.8 2.6 6.3 0 11.6-.8 15.8-2.3s7.4-3.6 9.7-6.3c2.3-2.6 4-5.7 5-9.3s1.5-7.7 1.5-12.2v-10.1c-5.6 4.5-11 7.8-16.1 10.1-5.1 2.2-11.6 3.3-19.6 3.3-13.2 0-23.7-4.8-31.5-14.3s-11.6-23-11.6-40.4c0-9.5 1.3-17.7 4-24.6s6.3-12.9 11-17.9c4.3-4.7 9.5-8.3 15.7-11 6.1-2.6 12.3-3.9 18.3-3.9 6.4 0 11.8.6 16.1 1.9s8.9 3.3 13.7 5.9l1.2-4.8h17.4zm-18.6-17.8v-60.4c-5-2.2-9.6-3.8-13.8-4.8-4.3-1-8.5-1.4-12.7-1.4-10.2 0-18.3 3.4-24.2 10.3s-8.8 16.9-8.8 29.9c0 12.4 2.2 21.8 6.5 28.3 4.4 6.4 11.6 9.6 21.7 9.6 5.4 0 10.9-1 16.3-3.1s10.4-4.9 15-8.4z"/><path d="m4176.1 684.5h-81.6c0 6.8 1 12.7 3.1 17.8 2 5.1 4.9 9.2 8.4 12.4 3.4 3.2 7.5 5.6 12.2 7.1 4.7 1.6 9.9 2.4 15.6 2.4 7.5 0 15.1-1.5 22.8-4.5 7.6-3 13.1-6 16.3-8.9h1v20.3c-6.3 2.6-12.7 4.9-19.2 6.6-6.5 1.8-13.4 2.7-20.6 2.7-18.4 0-32.7-5-43-14.9s-15.5-24.1-15.5-42.4c0-18.1 4.9-32.5 14.8-43.1s22.9-16 39-16c14.9 0 26.5 4.4 34.5 13.1 8.1 8.7 12.1 21.1 12.1 37.2v10.2zm-18.2-14.3c-.1-9.8-2.5-17.3-7.4-22.7s-12.2-8-22.2-8-17.9 2.9-23.8 8.8-9.3 13.2-10.1 21.9z"/><path d="m4373.8 634.9c0 6.5-1.1 12.6-3.4 18.2s-5.5 10.4-9.6 14.5c-5.1 5.1-11.1 8.9-18 11.4s-15.7 3.8-26.3 3.8h-19.6v55h-19.6v-147.5h40c8.9 0 16.4.7 22.5 2.2s11.6 3.8 16.4 7c5.6 3.8 10 8.5 13 14.1s4.6 12.7 4.6 21.3zm-20.5.5c0-5.1-.9-9.5-2.7-13.3s-4.5-6.8-8.1-9.2c-3.2-2-6.8-3.5-10.9-4.4s-9.2-1.3-15.4-1.3h-19.4v59h16.6c7.9 0 14.4-.7 19.3-2.1 5-1.4 9-3.7 12.1-6.8 3.1-3.2 5.3-6.5 6.6-10 1.3-3.6 1.9-7.5 1.9-11.9z"/><path d="m4479.2 737.9h-18.5v-11.8c-1.7 1.1-3.9 2.7-6.7 4.7s-5.5 3.6-8.2 4.8c-3.1 1.5-6.7 2.8-10.7 3.8s-8.8 1.5-14.2 1.5c-10 0-18.4-3.3-25.4-9.9-6.9-6.6-10.4-15-10.4-25.3 0-8.4 1.8-15.2 5.4-20.4s8.7-9.3 15.4-12.2c6.7-3 14.8-5 24.3-6 9.5-1.1 19.6-1.8 30.4-2.4v-2.9c0-4.2-.7-7.7-2.2-10.5s-3.6-5-6.4-6.5c-2.6-1.5-5.8-2.5-9.5-3.1-3.7-.5-7.6-.8-11.6-.8-4.9 0-10.3.6-16.4 1.9-6 1.3-12.2 3.2-18.6 5.6h-1v-18.9c3.6-1 8.9-2.1 15.8-3.3s13.6-1.8 20.3-1.8c7.8 0 14.6.6 20.4 1.9s10.8 3.5 15 6.6c4.2 3 7.3 7 9.5 11.8s3.3 10.8 3.3 17.9zm-18.5-27.3v-30.8c-5.7.3-12.4.8-20.1 1.5s-13.8 1.6-18.3 2.9c-5.4 1.5-9.7 3.9-13 7.1s-5 7.6-5 13.2c0 6.3 1.9 11.1 5.7 14.3s9.7 4.8 17.5 4.8c6.5 0 12.5-1.3 17.9-3.8 5.6-2.5 10.7-5.6 15.3-9.2z"/><path d="m4572.6 736.9c-3.5.9-7.3 1.7-11.5 2.3-4.1.6-7.8.9-11.1.9-11.3 0-19.9-3-25.8-9.1s-8.8-15.8-8.8-29.2v-58.9h-12.6v-15.7h12.6v-31.8h18.6v31.8h38.5v15.7h-38.5v50.5c0 5.8.1 10.4.4 13.6.3 3.3 1.2 6.3 2.8 9.2 1.5 2.6 3.5 4.6 6 5.8s6.4 1.8 11.6 1.8c3 0 6.2-.4 9.5-1.3s5.7-1.6 7.1-2.2h1v16.6z"/><path d="m4687.7 737.9h-18.6v-63c0-5.1-.3-9.9-.9-14.3-.6-4.5-1.7-7.9-3.3-10.5-1.7-2.8-4-4.8-7.1-6.2s-7.1-2-12.1-2c-5.1 0-10.4 1.3-16 3.8s-10.9 5.7-16 9.6v82.7h-18.6v-154.4h18.6v55.8c5.8-4.8 11.8-8.6 18-11.3s12.6-4.1 19.1-4.1c12 0 21.1 3.6 27.4 10.8s9.4 17.6 9.4 31.1v72z"/><path d="m4818 682.6c0 18-4.6 32.3-13.9 42.7s-21.6 15.7-37.2 15.7c-15.7 0-28.1-5.2-37.3-15.7-9.2-10.4-13.8-24.7-13.8-42.7s4.6-32.3 13.8-42.8 21.7-15.7 37.3-15.7c15.5 0 27.9 5.2 37.2 15.7 9.2 10.5 13.9 24.7 13.9 42.8zm-19.3 0c0-14.3-2.8-25-8.4-32s-13.4-10.5-23.4-10.5c-10.1 0-18 3.5-23.5 10.5-5.6 7-8.4 17.6-8.4 32 0 13.9 2.8 24.4 8.4 31.6s13.4 10.8 23.5 10.8c9.9 0 17.7-3.6 23.3-10.7 5.7-7.1 8.5-17.7 8.5-31.7z"/><path d="m4865.6 737.9h-18.6v-154.3h18.6z"/><path d="m4996.9 682.6c0 18-4.6 32.3-13.9 42.7s-21.6 15.7-37.2 15.7c-15.7 0-28.1-5.2-37.3-15.7-9.2-10.4-13.8-24.7-13.8-42.7s4.6-32.3 13.8-42.8 21.7-15.7 37.3-15.7c15.5 0 27.9 5.2 37.2 15.7s13.9 24.7 13.9 42.8zm-19.2 0c0-14.3-2.8-25-8.4-32s-13.4-10.5-23.4-10.5c-10.1 0-18 3.5-23.5 10.5-5.6 7-8.4 17.6-8.4 32 0 13.9 2.8 24.4 8.4 31.6s13.4 10.8 23.5 10.8c9.9 0 17.7-3.6 23.3-10.7s8.5-17.7 8.5-31.7z"/><path d="m5115.5 725.3c0 18.8-4.3 32.5-12.8 41.3s-21.6 13.2-39.4 13.2c-5.9 0-11.6-.4-17.2-1.2s-11.1-2-16.5-3.5v-19h1c3 1.2 7.9 2.7 14.5 4.4 6.6 1.8 13.2 2.6 19.8 2.6 6.3 0 11.6-.8 15.8-2.3s7.4-3.6 9.7-6.3c2.3-2.6 4-5.7 5-9.3s1.5-7.7 1.5-12.2v-10.1c-5.6 4.5-11 7.8-16.1 10.1-5.1 2.2-11.6 3.3-19.6 3.3-13.2 0-23.7-4.8-31.5-14.3s-11.6-23-11.6-40.4c0-9.5 1.3-17.7 4-24.6s6.3-12.9 11-17.9c4.3-4.7 9.5-8.3 15.7-11 6.1-2.6 12.3-3.9 18.3-3.9 6.4 0 11.8.6 16.1 1.9s8.9 3.3 13.7 5.9l1.2-4.8h17.4zm-18.6-17.8v-60.4c-5-2.2-9.6-3.8-13.8-4.8-4.3-1-8.5-1.4-12.7-1.4-10.2 0-18.3 3.4-24.2 10.3s-8.8 16.9-8.8 29.9c0 12.4 2.2 21.8 6.5 28.3 4.4 6.4 11.6 9.6 21.7 9.6 5.4 0 10.9-1 16.3-3.1s10.5-4.9 15-8.4z"/><path d="m5172.2 608.6h-21v-19.3h21zm-1.1 129.3h-18.6v-110.7h18.6z"/><path d="m5287 706c0 10.1-4.2 18.4-12.5 24.9-8.4 6.5-19.8 9.7-34.2 9.7-8.2 0-15.7-1-22.6-2.9-6.8-1.9-12.6-4.1-17.2-6.4v-20.9h1c5.9 4.4 12.4 7.9 19.6 10.6 7.2 2.6 14.1 3.9 20.7 3.9 8.2 0 14.6-1.3 19.2-4 4.6-2.6 6.9-6.8 6.9-12.5 0-4.4-1.3-7.7-3.8-9.9s-7.3-4.2-14.5-5.8c-2.6-.6-6.1-1.3-10.4-2.1s-8.1-1.7-11.6-2.6c-9.7-2.6-16.6-6.4-20.7-11.4s-6.1-11.1-6.1-18.4c0-4.6.9-8.9 2.8-12.9s4.7-7.6 8.6-10.8c3.7-3.1 8.4-5.6 14.1-7.4s12.1-2.7 19.2-2.7c6.6 0 13.3.8 20.1 2.4s12.4 3.6 16.9 5.9v19.9h-1c-4.8-3.5-10.5-6.5-17.3-8.9s-13.5-3.6-20-3.6c-6.8 0-12.6 1.3-17.2 3.9-4.7 2.6-7 6.5-7 11.6 0 4.6 1.4 8 4.3 10.3 2.8 2.3 7.3 4.2 13.5 5.7 3.4.8 7.3 1.6 11.5 2.4 4.3.8 7.8 1.5 10.7 2.2 8.7 2 15.3 5.4 20 10.2 4.7 5 7 11.5 7 19.6z"/><path d="m5371.2 736.9c-3.5.9-7.3 1.7-11.5 2.3-4.1.6-7.8.9-11.1.9-11.3 0-19.9-3-25.8-9.1s-8.8-15.8-8.8-29.2v-58.9h-12.6v-15.7h12.6v-31.8h18.6v31.8h38.5v15.7h-38.5v50.5c0 5.8.1 10.4.4 13.6.3 3.3 1.2 6.3 2.8 9.2 1.5 2.6 3.5 4.6 6 5.8s6.4 1.8 11.6 1.8c3 0 6.2-.4 9.5-1.3s5.7-1.6 7.1-2.2h1v16.6z"/><path d="m5472.8 706c0 10.1-4.2 18.4-12.5 24.9-8.4 6.5-19.8 9.7-34.2 9.7-8.2 0-15.7-1-22.6-2.9-6.8-1.9-12.6-4.1-17.2-6.4v-20.9h1c5.9 4.4 12.4 7.9 19.6 10.6 7.2 2.6 14.1 3.9 20.7 3.9 8.2 0 14.6-1.3 19.2-4 4.6-2.6 6.9-6.8 6.9-12.5 0-4.4-1.3-7.7-3.8-9.9s-7.3-4.2-14.5-5.8c-2.6-.6-6.1-1.3-10.4-2.1s-8.1-1.7-11.6-2.6c-9.7-2.6-16.6-6.4-20.7-11.4s-6.1-11.1-6.1-18.4c0-4.6.9-8.9 2.8-12.9s4.7-7.6 8.6-10.8c3.7-3.1 8.4-5.6 14.1-7.4s12.1-2.7 19.2-2.7c6.6 0 13.3.8 20.1 2.4s12.4 3.6 16.9 5.9v19.9h-1c-4.8-3.5-10.5-6.5-17.3-8.9s-13.5-3.6-20-3.6c-6.8 0-12.6 1.3-17.2 3.9-4.7 2.6-7 6.5-7 11.6 0 4.6 1.4 8 4.3 10.3 2.8 2.3 7.3 4.2 13.5 5.7 3.4.8 7.3 1.6 11.5 2.4 4.3.8 7.8 1.5 10.7 2.2 8.7 2 15.3 5.4 20 10.2 4.7 5 7 11.5 7 19.6z"/><path d="m5665.2 682.6c0 18-4.6 32.3-13.9 42.7s-21.6 15.7-37.2 15.7c-15.7 0-28.1-5.2-37.3-15.7-9.2-10.4-13.8-24.7-13.8-42.7s4.6-32.3 13.8-42.8 21.7-15.7 37.3-15.7c15.5 0 27.9 5.2 37.2 15.7s13.9 24.7 13.9 42.8zm-19.2 0c0-14.3-2.8-25-8.4-32s-13.4-10.5-23.4-10.5c-10.1 0-18 3.5-23.5 10.5-5.6 7-8.4 17.6-8.4 32 0 13.9 2.8 24.4 8.4 31.6s13.4 10.8 23.5 10.8c9.9 0 17.7-3.6 23.3-10.7 5.7-7.1 8.5-17.7 8.5-31.7z"/><path d="m5753.6 601.7h-1c-2-.6-4.7-1.2-8-1.8s-6.2-.9-8.7-.9c-8 0-13.8 1.8-17.4 5.3s-5.4 9.9-5.4 19.2v3.8h33.6v15.7h-33v95.1h-18.6v-95.1h-12.6v-15.7h12.6v-3.7c0-13.2 3.3-23.2 9.8-30.3 6.5-7 16-10.6 28.4-10.6 4.2 0 7.9.2 11.3.6 3.3.4 6.4.9 9.2 1.4v17z"/><path d="m5948.3 607.2c6 6.6 10.6 14.7 13.8 24.3s4.8 20.5 4.8 32.6c0 12.2-1.6 23-4.9 32.7-3.3 9.6-7.8 17.6-13.7 24-6.1 6.7-13.3 11.7-21.6 15.1s-17.8 5.1-28.4 5.1c-10.4 0-19.8-1.7-28.3-5.2-8.5-3.4-15.7-8.4-21.7-15-5.9-6.5-10.5-14.6-13.7-24.1s-4.8-20.4-4.8-32.6c0-12 1.6-22.8 4.8-32.4 3.2-9.5 7.8-17.7 13.9-24.5 5.8-6.5 13-11.4 21.7-14.9 8.6-3.4 18-5.2 28.2-5.2 10.6 0 20.1 1.7 28.5 5.2 8.4 3.6 15.6 8.5 21.4 14.9zm-1.7 56.9c0-19.2-4.3-34-12.9-44.4s-20.3-15.6-35.2-15.6c-15 0-26.8 5.2-35.3 15.6-8.6 10.4-12.8 25.2-12.8 44.4 0 19.4 4.4 34.2 13.1 44.5s20.4 15.4 35.1 15.4 26.4-5.1 35-15.4 13-25.1 13-44.5z"/><path d="m6089.2 737.9h-18.6v-63c0-5.1-.3-9.9-.9-14.3-.6-4.5-1.7-7.9-3.3-10.5-1.7-2.8-4-4.8-7.1-6.2s-7.1-2-12.1-2c-5.1 0-10.4 1.3-16 3.8s-10.9 5.7-16 9.6v82.7h-18.6v-110.8h18.6v12.3c5.8-4.8 11.8-8.6 18-11.3s12.6-4.1 19.1-4.1c12 0 21.1 3.6 27.4 10.8s9.4 17.6 9.4 31.1v71.9z"/><path d="m6182.6 736.9c-3.5.9-7.3 1.7-11.5 2.3-4.1.6-7.8.9-11.1.9-11.3 0-19.9-3-25.8-9.1s-8.8-15.8-8.8-29.2v-58.9h-12.6v-15.7h12.6v-31.8h18.6v31.8h38.5v15.7h-38.5v50.5c0 5.8.1 10.4.4 13.6.3 3.3 1.2 6.3 2.8 9.2 1.5 2.6 3.5 4.6 6 5.8s6.4 1.8 11.6 1.8c3 0 6.2-.4 9.5-1.3s5.7-1.6 7.1-2.2h1v16.6z"/><path d="m6291.1 737.9h-18.5v-11.8c-1.7 1.1-3.9 2.7-6.7 4.7s-5.5 3.6-8.2 4.8c-3.1 1.5-6.7 2.8-10.7 3.8s-8.8 1.5-14.2 1.5c-10 0-18.4-3.3-25.4-9.9-6.9-6.6-10.4-15-10.4-25.3 0-8.4 1.8-15.2 5.4-20.4s8.7-9.3 15.4-12.2c6.7-3 14.8-5 24.3-6 9.5-1.1 19.6-1.8 30.4-2.4v-2.9c0-4.2-.7-7.7-2.2-10.5s-3.6-5-6.4-6.5c-2.6-1.5-5.8-2.5-9.5-3.1-3.7-.5-7.6-.8-11.6-.8-4.9 0-10.3.6-16.4 1.9-6 1.3-12.2 3.2-18.6 5.6h-1v-18.9c3.6-1 8.9-2.1 15.8-3.3s13.6-1.8 20.3-1.8c7.8 0 14.6.6 20.4 1.9s10.8 3.5 15 6.6c4.2 3 7.3 7 9.5 11.8s3.3 10.8 3.3 17.9zm-18.5-27.3v-30.8c-5.7.3-12.4.8-20.1 1.5s-13.8 1.6-18.3 2.9c-5.4 1.5-9.7 3.9-13 7.1s-5 7.6-5 13.2c0 6.3 1.9 11.1 5.7 14.3s9.7 4.8 17.5 4.8c6.5 0 12.5-1.3 17.9-3.8 5.6-2.5 10.7-5.6 15.3-9.2z"/><path d="m6396.1 647.5h-1c-2.8-.7-5.5-1.1-8.1-1.4s-5.7-.4-9.3-.4c-5.7 0-11.3 1.3-16.7 3.8s-10.5 5.8-15.5 9.9v78.6h-18.5v-110.8h18.6v16.4c7.4-5.9 13.9-10.2 19.6-12.6 5.7-2.5 11.4-3.7 17.3-3.7 3.2 0 5.6.1 7 .2 1.5.2 3.6.5 6.5.9v19.1z"/><path d="m6433.7 608.6h-21v-19.3h21zm-1.2 129.3h-18.6v-110.7h18.6z"/><path d="m6563.7 682.6c0 18-4.6 32.3-13.9 42.7s-21.6 15.7-37.2 15.7c-15.7 0-28.1-5.2-37.3-15.7-9.2-10.4-13.8-24.7-13.8-42.7s4.6-32.3 13.8-42.8 21.7-15.7 37.3-15.7c15.5 0 27.9 5.2 37.2 15.7s13.9 24.7 13.9 42.8zm-19.2 0c0-14.3-2.8-25-8.4-32s-13.4-10.5-23.4-10.5c-10.1 0-18 3.5-23.5 10.5-5.6 7-8.4 17.6-8.4 32 0 13.9 2.8 24.4 8.4 31.6s13.4 10.8 23.5 10.8c9.9 0 17.7-3.6 23.3-10.7 5.7-7.1 8.5-17.7 8.5-31.7z"/><path d="m2494.5 932.1c6 6.6 10.6 14.7 13.8 24.3s4.8 20.5 4.8 32.6c0 12.2-1.6 23-4.9 32.7-3.3 9.6-7.8 17.6-13.7 24-6.1 6.7-13.3 11.7-21.6 15.1s-17.8 5.1-28.4 5.1c-10.4 0-19.8-1.7-28.3-5.2-8.5-3.4-15.7-8.4-21.7-15-5.9-6.5-10.5-14.6-13.7-24.1s-4.8-20.4-4.8-32.6c0-12 1.6-22.8 4.8-32.4 3.2-9.5 7.8-17.7 13.9-24.5 5.8-6.5 13-11.4 21.7-14.9 8.6-3.4 18-5.2 28.2-5.2 10.6 0 20.1 1.7 28.5 5.2s15.6 8.5 21.4 14.9zm-1.7 56.9c0-19.2-4.3-34-12.9-44.4s-20.3-15.6-35.2-15.6c-15 0-26.8 5.2-35.3 15.6-8.6 10.4-12.8 25.2-12.8 44.4 0 19.4 4.4 34.2 13.1 44.5s20.4 15.4 35.1 15.4 26.4-5.1 35-15.4 13-25.2 13-44.5z"/><path d="m2611.9 972.3h-1c-2.8-.7-5.5-1.1-8.1-1.4s-5.7-.4-9.3-.4c-5.7 0-11.3 1.3-16.7 3.8s-10.5 5.8-15.5 9.9v78.6h-18.6v-110.8h18.6v16.4c7.4-5.9 13.9-10.2 19.6-12.6 5.7-2.5 11.4-3.7 17.3-3.7 3.2 0 5.6.1 7 .2 1.5.2 3.6.5 6.5.9v19.1z"/><path d="m2719.3 1062.7h-18.6v-11.6c-5.4 4.6-10.9 8.2-16.8 10.8-5.8 2.6-12.1 3.9-18.9 3.9-13.2 0-23.7-5.1-31.5-15.3s-11.6-24.3-11.6-42.3c0-9.4 1.3-17.7 4-25.1 2.7-7.3 6.3-13.6 10.9-18.7 4.5-5 9.7-8.9 15.7-11.5s12.2-4 18.6-4c5.8 0 11 .6 15.5 1.8s9.2 3.1 14.2 5.7v-48h18.6v154.3zm-18.7-27.2v-63.5c-5-2.2-9.5-3.8-13.5-4.7s-8.3-1.3-13-1.3c-10.4 0-18.6 3.6-24.4 10.9s-8.7 17.6-8.7 30.9c0 13.2 2.2 23.1 6.7 30 4.5 6.8 11.7 10.3 21.6 10.3 5.3 0 10.6-1.2 16.1-3.5 5.5-2.4 10.5-5.4 15.2-9.1z"/><path d="m2825 972.3h-1c-2.8-.7-5.5-1.1-8.1-1.4s-5.7-.4-9.3-.4c-5.7 0-11.3 1.3-16.7 3.8s-10.5 5.8-15.5 9.9v78.6h-18.6v-110.8h18.6v16.4c7.4-5.9 13.9-10.2 19.6-12.6 5.7-2.5 11.4-3.7 17.3-3.7 3.2 0 5.6.1 7 .2 1.5.2 3.6.5 6.5.9v19.1z"/><path d="m2935.3 1009.3h-81.6c0 6.8 1 12.7 3.1 17.8 2 5.1 4.9 9.2 8.4 12.4 3.4 3.2 7.5 5.6 12.2 7.1 4.7 1.6 9.9 2.4 15.6 2.4 7.5 0 15.1-1.5 22.8-4.5 7.6-3 13.1-6 16.3-8.9h1v20.3c-6.3 2.6-12.7 4.9-19.2 6.6-6.5 1.8-13.4 2.7-20.6 2.7-18.4 0-32.7-5-43-14.9s-15.5-24.1-15.5-42.4c0-18.1 4.9-32.5 14.8-43.1s22.9-16 39-16c14.9 0 26.5 4.4 34.5 13.1 8.1 8.7 12.1 21.1 12.1 37.2v10.2zm-18.2-14.3c-.1-9.8-2.5-17.3-7.4-22.7s-12.2-8-22.2-8-17.9 2.9-23.8 8.8-9.3 13.2-10.1 21.9z"/><path d="m3124.7 1062.7h-18.6v-11.6c-5.4 4.6-10.9 8.2-16.8 10.8-5.8 2.6-12.1 3.9-18.9 3.9-13.2 0-23.7-5.1-31.5-15.3s-11.6-24.3-11.6-42.3c0-9.4 1.3-17.7 4-25.1 2.7-7.3 6.3-13.6 10.9-18.7 4.5-5 9.7-8.9 15.7-11.5s12.2-4 18.6-4c5.8 0 11 .6 15.5 1.8s9.2 3.1 14.2 5.7v-48h18.6v154.3zm-18.6-27.2v-63.5c-5-2.2-9.5-3.8-13.5-4.7s-8.3-1.3-13-1.3c-10.4 0-18.6 3.6-24.4 10.9s-8.7 17.6-8.7 30.9c0 13.2 2.2 23.1 6.7 30 4.5 6.8 11.7 10.3 21.6 10.3 5.3 0 10.6-1.2 16.1-3.5 5.4-2.4 10.5-5.4 15.2-9.1z"/><path d="m3254.1 1009.3h-81.6c0 6.8 1 12.7 3.1 17.8 2 5.1 4.9 9.2 8.4 12.4 3.4 3.2 7.5 5.6 12.2 7.1 4.7 1.6 9.9 2.4 15.6 2.4 7.5 0 15.1-1.5 22.8-4.5 7.6-3 13.1-6 16.3-8.9h1v20.3c-6.3 2.6-12.7 4.9-19.2 6.6-6.5 1.8-13.4 2.7-20.6 2.7-18.4 0-32.7-5-43-14.9s-15.5-24.1-15.5-42.4c0-18.1 4.9-32.5 14.8-43.1s22.9-16 39-16c14.9 0 26.5 4.4 34.5 13.1 8.1 8.7 12.1 21.1 12.1 37.2v10.2zm-18.2-14.3c-.1-9.8-2.5-17.3-7.4-22.7s-12.2-8-22.2-8-17.9 2.9-23.8 8.8-9.3 13.2-10.1 21.9z"/><path d="m3361.4 1030.8c0 10.1-4.2 18.4-12.5 24.9-8.4 6.5-19.8 9.7-34.2 9.7-8.2 0-15.7-1-22.6-2.9-6.8-1.9-12.6-4.1-17.2-6.4v-20.9h1c5.9 4.4 12.4 7.9 19.6 10.6 7.2 2.6 14.1 3.9 20.7 3.9 8.2 0 14.6-1.3 19.2-4 4.6-2.6 6.9-6.8 6.9-12.5 0-4.4-1.3-7.7-3.8-9.9s-7.3-4.2-14.5-5.8c-2.6-.6-6.1-1.3-10.4-2.1s-8.1-1.7-11.6-2.6c-9.7-2.6-16.6-6.4-20.7-11.4s-6.1-11.1-6.1-18.4c0-4.6.9-8.9 2.8-12.9s4.7-7.6 8.6-10.8c3.7-3.1 8.4-5.6 14.1-7.4s12.1-2.7 19.2-2.7c6.6 0 13.3.8 20.1 2.4s12.4 3.6 16.9 5.9v19.9h-1c-4.8-3.5-10.5-6.5-17.3-8.9s-13.5-3.6-20-3.6c-6.8 0-12.6 1.3-17.2 3.9-4.7 2.6-7 6.5-7 11.6 0 4.6 1.4 8 4.3 10.3 2.8 2.3 7.3 4.2 13.5 5.7 3.4.8 7.3 1.6 11.5 2.4 4.3.8 7.8 1.5 10.7 2.2 8.7 2 15.3 5.4 20 10.2 4.7 5.1 7 11.5 7 19.6z"/><path d="m3664.6 1062.7h-18.6v-12.3c-6.3 5-12.3 8.8-18 11.4-5.8 2.6-12.1 4-19 4-11.6 0-20.7-3.6-27.2-10.7s-9.7-17.5-9.7-31.3v-71.8h18.6v63c0 5.6.3 10.4.8 14.4s1.7 7.4 3.4 10.3c1.8 2.9 4.1 5 6.9 6.3s7 2 12.4 2c4.8 0 10.1-1.3 15.8-3.8s11.1-5.7 16-9.6v-82.6h18.6z"/><path d="m3791.1 1062.7h-18.6v-11.6c-5.4 4.6-10.9 8.2-16.8 10.8-5.8 2.6-12.1 3.9-18.9 3.9-13.2 0-23.7-5.1-31.5-15.3s-11.6-24.3-11.6-42.3c0-9.4 1.3-17.7 4-25.1 2.7-7.3 6.3-13.6 10.9-18.7 4.5-5 9.7-8.9 15.7-11.5s12.2-4 18.6-4c5.8 0 11 .6 15.5 1.8s9.2 3.1 14.2 5.7v-48h18.6v154.3zm-18.7-27.2v-63.5c-5-2.2-9.5-3.8-13.5-4.7s-8.3-1.3-13-1.3c-10.4 0-18.6 3.6-24.4 10.9s-8.7 17.6-8.7 30.9c0 13.2 2.2 23.1 6.7 30 4.5 6.8 11.7 10.3 21.6 10.3 5.3 0 10.6-1.2 16.1-3.5 5.5-2.4 10.5-5.4 15.2-9.1z"/><path d="m3847.8 933.5h-21v-19.3h21zm-1.2 129.2h-18.6v-110.7h18.6z"/><path d="m3977.8 1007.4c0 18-4.6 32.3-13.9 42.7s-21.6 15.7-37.2 15.7c-15.7 0-28.1-5.2-37.3-15.7-9.2-10.4-13.8-24.7-13.8-42.7s4.6-32.3 13.8-42.8 21.7-15.7 37.3-15.7c15.5 0 27.9 5.2 37.2 15.7s13.9 24.8 13.9 42.8zm-19.2 0c0-14.3-2.8-25-8.4-32s-13.4-10.5-23.4-10.5c-10.1 0-18 3.5-23.5 10.5-5.6 7-8.4 17.6-8.4 32 0 13.9 2.8 24.4 8.4 31.6s13.4 10.8 23.5 10.8c9.9 0 17.7-3.6 23.3-10.7 5.7-7.1 8.5-17.7 8.5-31.7z"/><path d="m4025.5 1062.7h-18.6v-154.2h18.6z"/><path d="m4156.8 1007.4c0 18-4.6 32.3-13.9 42.7s-21.6 15.7-37.2 15.7c-15.7 0-28.1-5.2-37.3-15.7-9.2-10.4-13.8-24.7-13.8-42.7s4.6-32.3 13.8-42.8 21.7-15.7 37.3-15.7c15.5 0 27.9 5.2 37.2 15.7 9.2 10.5 13.9 24.8 13.9 42.8zm-19.3 0c0-14.3-2.8-25-8.4-32s-13.4-10.5-23.4-10.5c-10.1 0-18 3.5-23.5 10.5-5.6 7-8.4 17.6-8.4 32 0 13.9 2.8 24.4 8.4 31.6s13.4 10.8 23.5 10.8c9.9 0 17.7-3.6 23.3-10.7 5.7-7.1 8.5-17.7 8.5-31.7z"/><path d="m4275.4 1050.1c0 18.8-4.3 32.5-12.8 41.3s-21.6 13.2-39.4 13.2c-5.9 0-11.6-.4-17.2-1.2s-11.1-2-16.5-3.5v-19h1c3 1.2 7.9 2.7 14.5 4.4 6.6 1.8 13.2 2.6 19.8 2.6 6.3 0 11.6-.8 15.8-2.3s7.4-3.6 9.7-6.3c2.3-2.6 4-5.7 5-9.3s1.5-7.7 1.5-12.2v-10.1c-5.6 4.5-11 7.8-16.1 10.1-5.1 2.2-11.6 3.3-19.6 3.3-13.2 0-23.7-4.8-31.5-14.3s-11.6-23-11.6-40.4c0-9.5 1.3-17.7 4-24.6s6.3-12.9 11-17.9c4.3-4.7 9.5-8.3 15.7-11 6.1-2.6 12.3-3.9 18.3-3.9 6.4 0 11.8.6 16.1 1.9s8.9 3.3 13.7 5.9l1.2-4.8h17.4zm-18.6-17.8v-60.4c-5-2.2-9.6-3.8-13.8-4.8-4.3-1-8.5-1.4-12.7-1.4-10.2 0-18.3 3.4-24.2 10.3s-8.8 16.9-8.8 29.9c0 12.4 2.2 21.8 6.5 28.3 4.4 6.4 11.6 9.6 21.7 9.6 5.4 0 10.9-1 16.3-3.1s10.4-4.9 15-8.4z"/><path d="m4332.1 933.5h-21v-19.3h21zm-1.2 129.2h-18.6v-110.7h18.6z"/><path d="m4446.9 1030.8c0 10.1-4.2 18.4-12.5 24.9-8.4 6.5-19.8 9.7-34.2 9.7-8.2 0-15.7-1-22.6-2.9-6.8-1.9-12.6-4.1-17.2-6.4v-20.9h1c5.9 4.4 12.4 7.9 19.6 10.6 7.2 2.6 14.1 3.9 20.7 3.9 8.2 0 14.6-1.3 19.2-4 4.6-2.6 6.9-6.8 6.9-12.5 0-4.4-1.3-7.7-3.8-9.9s-7.3-4.2-14.5-5.8c-2.6-.6-6.1-1.3-10.4-2.1s-8.1-1.7-11.6-2.6c-9.7-2.6-16.6-6.4-20.7-11.4s-6.1-11.1-6.1-18.4c0-4.6.9-8.9 2.8-12.9s4.7-7.6 8.6-10.8c3.7-3.1 8.4-5.6 14.1-7.4s12.1-2.7 19.2-2.7c6.6 0 13.3.8 20.1 2.4s12.4 3.6 16.9 5.9v19.9h-1c-4.8-3.5-10.5-6.5-17.3-8.9s-13.5-3.6-20-3.6c-6.8 0-12.6 1.3-17.2 3.9-4.7 2.6-7 6.5-7 11.6 0 4.6 1.4 8 4.3 10.3 2.8 2.3 7.3 4.2 13.5 5.7 3.4.8 7.3 1.6 11.5 2.4 4.3.8 7.8 1.5 10.7 2.2 8.7 2 15.3 5.4 20 10.2 4.7 5.1 7 11.5 7 19.6z"/><path d="m4531.1 1061.7c-3.5.9-7.3 1.7-11.5 2.3-4.1.6-7.8.9-11.1.9-11.3 0-19.9-3-25.8-9.1s-8.8-15.8-8.8-29.2v-58.9h-12.6v-15.7h12.6v-31.8h18.6v31.8h38.5v15.7h-38.5v50.5c0 5.8.1 10.4.4 13.6.3 3.3 1.2 6.3 2.8 9.2 1.5 2.6 3.5 4.6 6 5.8s6.4 1.8 11.6 1.8c3 0 6.2-.4 9.5-1.3s5.7-1.6 7.1-2.2h1v16.6z"/><path d="m4646.3 1009.3h-81.6c0 6.8 1 12.7 3.1 17.8 2 5.1 4.9 9.2 8.4 12.4 3.4 3.2 7.5 5.6 12.2 7.1 4.7 1.6 9.9 2.4 15.6 2.4 7.5 0 15.1-1.5 22.8-4.5 7.6-3 13.1-6 16.3-8.9h1v20.3c-6.3 2.6-12.7 4.9-19.2 6.6-6.5 1.8-13.4 2.7-20.6 2.7-18.4 0-32.7-5-43-14.9s-15.5-24.1-15.5-42.4c0-18.1 4.9-32.5 14.8-43.1s22.9-16 39-16c14.9 0 26.5 4.4 34.5 13.1 8.1 8.7 12.1 21.1 12.1 37.2v10.2zm-18.2-14.3c-.1-9.8-2.5-17.3-7.4-22.7s-12.2-8-22.2-8-17.9 2.9-23.8 8.8-9.3 13.2-10.1 21.9z"/><path d="m4753.6 1030.8c0 10.1-4.2 18.4-12.5 24.9-8.4 6.5-19.8 9.7-34.2 9.7-8.2 0-15.7-1-22.6-2.9-6.8-1.9-12.6-4.1-17.2-6.4v-20.9h1c5.9 4.4 12.4 7.9 19.6 10.6 7.2 2.6 14.1 3.9 20.7 3.9 8.2 0 14.6-1.3 19.2-4 4.6-2.6 6.9-6.8 6.9-12.5 0-4.4-1.3-7.7-3.8-9.9s-7.3-4.2-14.5-5.8c-2.6-.6-6.1-1.3-10.4-2.1s-8.1-1.7-11.6-2.6c-9.7-2.6-16.6-6.4-20.7-11.4s-6.1-11.1-6.1-18.4c0-4.6.9-8.9 2.8-12.9s4.7-7.6 8.6-10.8c3.7-3.1 8.4-5.6 14.1-7.4s12.1-2.7 19.2-2.7c6.6 0 13.3.8 20.1 2.4s12.4 3.6 16.9 5.9v19.9h-1c-4.8-3.5-10.5-6.5-17.3-8.9s-13.5-3.6-20-3.6c-6.8 0-12.6 1.3-17.2 3.9-4.7 2.6-7 6.5-7 11.6 0 4.6 1.4 8 4.3 10.3 2.8 2.3 7.3 4.2 13.5 5.7 3.4.8 7.3 1.6 11.5 2.4 4.3.8 7.8 1.5 10.7 2.2 8.7 2 15.3 5.4 20 10.2 4.7 5.1 7 11.5 7 19.6z"/><path d="m4944.4 1009.3h-81.6c0 6.8 1 12.7 3.1 17.8 2 5.1 4.9 9.2 8.4 12.4 3.4 3.2 7.5 5.6 12.2 7.1 4.7 1.6 9.9 2.4 15.6 2.4 7.5 0 15.1-1.5 22.8-4.5 7.6-3 13.1-6 16.3-8.9h1v20.3c-6.3 2.6-12.7 4.9-19.2 6.6-6.5 1.8-13.4 2.7-20.6 2.7-18.4 0-32.7-5-43-14.9s-15.5-24.1-15.5-42.4c0-18.1 4.9-32.5 14.8-43.1s22.9-16 39-16c14.9 0 26.5 4.4 34.5 13.1 8.1 8.7 12.1 21.1 12.1 37.2v10.2zm-18.2-14.3c-.1-9.8-2.5-17.3-7.4-22.7s-12.2-8-22.2-8-17.9 2.9-23.8 8.8-9.3 13.2-10.1 21.9z"/><path d="m5030.1 1061.7c-3.5.9-7.3 1.7-11.5 2.3-4.1.6-7.8.9-11.1.9-11.3 0-19.9-3-25.8-9.1s-8.8-15.8-8.8-29.2v-58.9h-12.6v-15.7h12.6v-31.8h18.6v31.8h38.5v15.7h-38.5v50.5c0 5.8.1 10.4.4 13.6.3 3.3 1.2 6.3 2.8 9.2 1.5 2.6 3.5 4.6 6 5.8s6.4 1.8 11.6 1.8c3 0 6.2-.4 9.5-1.3s5.7-1.6 7.1-2.2h1v16.6z"/><path d="m2472.8 1265.8h-18.6v-11.6c-5.4 4.6-10.9 8.2-16.8 10.8-5.8 2.6-12.1 3.9-18.9 3.9-13.2 0-23.7-5.1-31.5-15.3s-11.6-24.3-11.6-42.3c0-9.4 1.3-17.7 4-25.1 2.7-7.3 6.3-13.6 10.9-18.7 4.5-5 9.7-8.9 15.7-11.5s12.2-4 18.6-4c5.8 0 11 .6 15.5 1.8s9.2 3.1 14.2 5.7v-48h18.6v154.3zm-18.6-27.3v-63.5c-5-2.2-9.5-3.8-13.5-4.7s-8.3-1.3-13-1.3c-10.4 0-18.6 3.6-24.4 10.9s-8.7 17.6-8.7 30.9c0 13.2 2.2 23.1 6.7 30 4.5 6.8 11.7 10.3 21.6 10.3 5.3 0 10.6-1.2 16.1-3.5 5.4-2.4 10.5-5.4 15.2-9.1z"/><path d="m2602.2 1212.3h-81.6c0 6.8 1 12.7 3.1 17.8 2 5.1 4.9 9.2 8.4 12.4 3.4 3.2 7.5 5.6 12.2 7.1 4.7 1.6 9.9 2.4 15.6 2.4 7.5 0 15.1-1.5 22.8-4.5 7.6-3 13.1-6 16.3-8.9h1v20.3c-6.3 2.6-12.7 4.9-19.2 6.6-6.5 1.8-13.4 2.7-20.6 2.7-18.4 0-32.7-5-43-14.9s-15.5-24.1-15.5-42.4c0-18.1 4.9-32.5 14.8-43.1s22.9-16 39-16c14.9 0 26.5 4.4 34.5 13.1 8.1 8.7 12.1 21.1 12.1 37.2v10.2zm-18.1-14.3c-.1-9.8-2.5-17.3-7.4-22.7s-12.2-8-22.2-8-17.9 2.9-23.8 8.8-9.3 13.2-10.1 21.9z"/><path d="m2709.6 1233.8c0 10.1-4.2 18.4-12.5 24.9-8.4 6.5-19.8 9.7-34.2 9.7-8.2 0-15.7-1-22.6-2.9-6.8-1.9-12.6-4.1-17.2-6.4v-20.9h1c5.9 4.4 12.4 7.9 19.6 10.6 7.2 2.6 14.1 3.9 20.7 3.9 8.2 0 14.6-1.3 19.2-4 4.6-2.6 6.9-6.8 6.9-12.5 0-4.4-1.3-7.7-3.8-9.9s-7.3-4.2-14.5-5.8c-2.6-.6-6.1-1.3-10.4-2.1s-8.1-1.7-11.6-2.6c-9.7-2.6-16.6-6.4-20.7-11.4s-6.1-11.1-6.1-18.4c0-4.6.9-8.9 2.8-12.9s4.7-7.6 8.6-10.8c3.7-3.1 8.4-5.6 14.1-7.4s12.1-2.7 19.2-2.7c6.6 0 13.3.8 20.1 2.4s12.4 3.6 16.9 5.9v19.9h-1c-4.8-3.5-10.5-6.5-17.3-8.9s-13.5-3.6-20-3.6c-6.8 0-12.6 1.3-17.2 3.9-4.7 2.6-7 6.5-7 11.6 0 4.6 1.4 8 4.3 10.3 2.8 2.3 7.3 4.2 13.5 5.7 3.4.8 7.3 1.6 11.5 2.4 4.3.8 7.8 1.5 10.7 2.2 8.7 2 15.3 5.4 20 10.2 4.6 5.1 7 11.6 7 19.6z"/><path d="m2996.2 1175.3h-1c-2.8-.7-5.5-1.1-8.1-1.4s-5.7-.4-9.3-.4c-5.7 0-11.3 1.3-16.7 3.8s-10.5 5.8-15.5 9.9v78.6h-18.6v-110.8h18.6v16.4c7.4-5.9 13.9-10.2 19.6-12.6 5.7-2.5 11.4-3.7 17.3-3.7 3.2 0 5.6.1 7 .2 1.5.2 3.6.5 6.5.9v19.1z"/><path d="m3071.2 1264.8c-3.5.9-7.3 1.7-11.5 2.3-4.1.6-7.8.9-11.1.9-11.3 0-19.9-3-25.8-9.1s-8.8-15.8-8.8-29.2v-58.9h-12.6v-15.8h12.6v-31.8h18.6v31.8h38.5v15.7h-38.5v50.5c0 5.8.1 10.4.4 13.6.3 3.3 1.2 6.3 2.8 9.2 1.5 2.6 3.5 4.6 6 5.8s6.4 1.8 11.6 1.8c3 0 6.2-.4 9.5-1.3s5.7-1.6 7.1-2.2h1v16.7z"/><path d="m3186.3 1265.8h-18.6v-63c0-5.1-.3-9.9-.9-14.3s-1.7-7.9-3.3-10.5c-1.7-2.8-4-4.8-7.1-6.2s-7.1-2-12.1-2c-5.1 0-10.4 1.3-16 3.8s-10.9 5.7-16 9.6v82.7h-18.6v-154.2h18.6v55.8c5.8-4.8 11.8-8.6 18-11.3s12.6-4.1 19.1-4.1c12 0 21.1 3.6 27.4 10.8s9.4 17.6 9.4 31.1v71.8z"/><path d="m3316.6 1210.4c0 18-4.6 32.3-13.9 42.7s-21.6 15.7-37.2 15.7c-15.7 0-28.1-5.2-37.3-15.7-9.2-10.4-13.8-24.7-13.8-42.7s4.6-32.3 13.8-42.8 21.7-15.7 37.3-15.7c15.5 0 27.9 5.2 37.2 15.7 9.2 10.5 13.9 24.8 13.9 42.8zm-19.3 0c0-14.3-2.8-25-8.4-32s-13.4-10.5-23.4-10.5c-10.1 0-18 3.5-23.5 10.5-5.6 7-8.4 17.6-8.4 32 0 13.9 2.8 24.4 8.4 31.6s13.4 10.8 23.5 10.8c9.9 0 17.7-3.6 23.3-10.7 5.7-7.1 8.5-17.7 8.5-31.7z"/><path d="m3442.8 1209c0 9-1.3 17.2-3.9 24.6s-6.2 13.7-10.9 18.9c-4.4 4.9-9.5 8.7-15.4 11.4s-12.2 4-18.8 4c-5.7 0-11-.6-15.6-1.9-4.7-1.3-9.4-3.2-14.2-5.8v46.4h-18.6v-151.6h18.6v11.6c5-4.2 10.5-7.6 16.7-10.5 6.2-2.8 12.8-4.2 19.8-4.2 13.3 0 23.7 5 31.2 15.1 7.4 10.1 11.1 24.1 11.1 42zm-19.2.5c0-13.3-2.3-23.3-6.8-29.9-4.6-6.6-11.6-9.9-21-9.9-5.4 0-10.7 1.2-16.2 3.5-5.4 2.3-10.6 5.4-15.6 9.1v62.8c5.3 2.4 9.8 4 13.6 4.9s8.1 1.3 12.9 1.3c10.4 0 18.5-3.5 24.3-10.5 5.9-7.1 8.8-17.5 8.8-31.3z"/><path d="m3564.5 1265.8h-18.6v-63c0-5.1-.3-9.9-.9-14.3s-1.7-7.9-3.3-10.5c-1.7-2.8-4-4.8-7.1-6.2s-7.1-2-12.1-2c-5.1 0-10.4 1.3-16 3.8s-10.9 5.7-16 9.6v82.7h-18.6v-154.2h18.6v55.8c5.8-4.8 11.8-8.6 18-11.3s12.6-4.1 19.1-4.1c12 0 21.1 3.6 27.4 10.8s9.4 17.6 9.4 31.1v71.8z"/><path d="m3694.7 1210.4c0 18-4.6 32.3-13.9 42.7s-21.6 15.7-37.2 15.7c-15.7 0-28.1-5.2-37.3-15.7-9.2-10.4-13.8-24.7-13.8-42.7s4.6-32.3 13.8-42.8 21.7-15.7 37.3-15.7c15.5 0 27.9 5.2 37.2 15.7s13.9 24.8 13.9 42.8zm-19.2 0c0-14.3-2.8-25-8.4-32s-13.4-10.5-23.4-10.5c-10.1 0-18 3.5-23.5 10.5-5.6 7-8.4 17.6-8.4 32 0 13.9 2.8 24.4 8.4 31.6s13.4 10.8 23.5 10.8c9.9 0 17.7-3.6 23.3-10.7 5.7-7.1 8.5-17.7 8.5-31.7z"/><path d="m3816.2 1265.8h-18.6v-63c0-5.1-.3-9.9-.9-14.3s-1.7-7.9-3.3-10.5c-1.7-2.8-4-4.8-7.1-6.2s-7.1-2-12.1-2c-5.1 0-10.4 1.3-16 3.8s-10.9 5.7-16 9.6v82.7h-18.6v-110.9h18.6v12.3c5.8-4.8 11.8-8.6 18-11.3s12.6-4.1 19.1-4.1c12 0 21.1 3.6 27.4 10.8s9.4 17.6 9.4 31.1v72z"/><path d="m3872.1 1136.5h-21v-19.3h21zm-1.2 129.3h-18.6v-110.8h18.6z"/><path d="m3986.9 1233.8c0 10.1-4.2 18.4-12.5 24.9-8.4 6.5-19.8 9.7-34.2 9.7-8.2 0-15.7-1-22.6-2.9-6.8-1.9-12.6-4.1-17.2-6.4v-20.9h1c5.9 4.4 12.4 7.9 19.6 10.6 7.2 2.6 14.1 3.9 20.7 3.9 8.2 0 14.6-1.3 19.2-4 4.6-2.6 6.9-6.8 6.9-12.5 0-4.4-1.3-7.7-3.8-9.9s-7.3-4.2-14.5-5.8c-2.6-.6-6.1-1.3-10.4-2.1s-8.1-1.7-11.6-2.6c-9.7-2.6-16.6-6.4-20.7-11.4s-6.1-11.1-6.1-18.4c0-4.6.9-8.9 2.8-12.9s4.7-7.6 8.6-10.8c3.7-3.1 8.4-5.6 14.1-7.4s12.1-2.7 19.2-2.7c6.6 0 13.3.8 20.1 2.4s12.4 3.6 16.9 5.9v19.9h-1c-4.8-3.5-10.5-6.5-17.3-8.9s-13.5-3.6-20-3.6c-6.8 0-12.6 1.3-17.2 3.9-4.7 2.6-7 6.5-7 11.6 0 4.6 1.4 8 4.3 10.3 2.8 2.3 7.3 4.2 13.5 5.7 3.4.8 7.3 1.6 11.5 2.4 4.3.8 7.8 1.5 10.7 2.2 8.7 2 15.3 5.4 20 10.2 4.6 5.1 7 11.6 7 19.6z"/><path d="m4071 1264.8c-3.5.9-7.3 1.7-11.5 2.3-4.1.6-7.8.9-11.1.9-11.3 0-19.9-3-25.8-9.1s-8.8-15.8-8.8-29.2v-58.9h-12.6v-15.8h12.6v-31.8h18.6v31.8h38.5v15.7h-38.5v50.5c0 5.8.1 10.4.4 13.6.3 3.3 1.2 6.3 2.8 9.2 1.5 2.6 3.5 4.6 6 5.8s6.4 1.8 11.6 1.8c3 0 6.2-.4 9.5-1.3s5.7-1.6 7.1-2.2h1v16.7z"/><path d="m4186.2 1212.3h-81.6c0 6.8 1 12.7 3.1 17.8 2 5.1 4.9 9.2 8.4 12.4 3.4 3.2 7.5 5.6 12.2 7.1 4.7 1.6 9.9 2.4 15.6 2.4 7.5 0 15.1-1.5 22.8-4.5 7.6-3 13.1-6 16.3-8.9h1v20.3c-6.3 2.6-12.7 4.9-19.2 6.6-6.5 1.8-13.4 2.7-20.6 2.7-18.4 0-32.7-5-43-14.9s-15.5-24.1-15.5-42.4c0-18.1 4.9-32.5 14.8-43.1s22.9-16 39-16c14.9 0 26.5 4.4 34.5 13.1 8.1 8.7 12.1 21.1 12.1 37.2v10.2zm-18.1-14.3c-.1-9.8-2.5-17.3-7.4-22.7s-12.2-8-22.2-8-17.9 2.9-23.8 8.8-9.3 13.2-10.1 21.9z"/><path d="m4293.6 1233.8c0 10.1-4.2 18.4-12.5 24.9-8.4 6.5-19.8 9.7-34.2 9.7-8.2 0-15.7-1-22.6-2.9-6.8-1.9-12.6-4.1-17.2-6.4v-20.9h1c5.9 4.4 12.4 7.9 19.6 10.6 7.2 2.6 14.1 3.9 20.7 3.9 8.2 0 14.6-1.3 19.2-4 4.6-2.6 6.9-6.8 6.9-12.5 0-4.4-1.3-7.7-3.8-9.9s-7.3-4.2-14.5-5.8c-2.6-.6-6.1-1.3-10.4-2.1s-8.1-1.7-11.6-2.6c-9.7-2.6-16.6-6.4-20.7-11.4s-6.1-11.1-6.1-18.4c0-4.6.9-8.9 2.8-12.9s4.7-7.6 8.6-10.8c3.7-3.1 8.4-5.6 14.1-7.4s12.1-2.7 19.2-2.7c6.6 0 13.3.8 20.1 2.4s12.4 3.6 16.9 5.9v19.9h-1c-4.8-3.5-10.5-6.5-17.3-8.9s-13.5-3.6-20-3.6c-6.8 0-12.6 1.3-17.2 3.9-4.7 2.6-7 6.5-7 11.6 0 4.6 1.4 8 4.3 10.3 2.8 2.3 7.3 4.2 13.5 5.7 3.4.8 7.3 1.6 11.5 2.4 4.3.8 7.8 1.5 10.7 2.2 8.7 2 15.3 5.4 20 10.2 4.6 5.1 7 11.6 7 19.6z"/><path d="m4481.4 1265.8h-18.6v-11.6c-5.4 4.6-10.9 8.2-16.8 10.8-5.8 2.6-12.1 3.9-18.9 3.9-13.2 0-23.7-5.1-31.5-15.3s-11.6-24.3-11.6-42.3c0-9.4 1.3-17.7 4-25.1s6.3-13.6 10.9-18.7c4.5-5 9.7-8.9 15.7-11.5s12.2-4 18.6-4c5.8 0 11 .6 15.5 1.8s9.2 3.1 14.2 5.7v-48h18.6v154.3zm-18.6-27.3v-63.5c-5-2.2-9.5-3.8-13.5-4.7s-8.3-1.3-13-1.3c-10.4 0-18.6 3.6-24.4 10.9s-8.7 17.6-8.7 30.9c0 13.2 2.2 23.1 6.7 30 4.5 6.8 11.7 10.3 21.6 10.3 5.3 0 10.6-1.2 16.1-3.5 5.4-2.4 10.5-5.4 15.2-9.1z"/><path d="m4610.8 1212.3h-81.6c0 6.8 1 12.7 3.1 17.8 2 5.1 4.9 9.2 8.4 12.4 3.4 3.2 7.5 5.6 12.2 7.1 4.7 1.6 9.9 2.4 15.6 2.4 7.5 0 15.1-1.5 22.8-4.5 7.6-3 13.1-6 16.3-8.9h1v20.3c-6.3 2.6-12.7 4.9-19.2 6.6-6.5 1.8-13.4 2.7-20.6 2.7-18.4 0-32.7-5-43-14.9s-15.5-24.1-15.5-42.4c0-18.1 4.9-32.5 14.8-43.1s22.9-16 39-16c14.9 0 26.5 4.4 34.5 13.1 8.1 8.7 12.1 21.1 12.1 37.2v10.2zm-18.1-14.3c-.1-9.8-2.5-17.3-7.4-22.7s-12.2-8-22.2-8-17.9 2.9-23.8 8.8-9.3 13.2-10.1 21.9z"/><path d="m4729.3 1265.8h-18.6v-154.2h18.6z"/><path d="m4786.1 1111.5-4.3 57.4h-13.5l-4.3-57.4z"/><path d="m4932.2 1135.1c6 6.6 10.6 14.7 13.8 24.3s4.8 20.5 4.8 32.6c0 12.2-1.6 23-4.9 32.7-3.3 9.6-7.8 17.6-13.7 24-6.1 6.7-13.3 11.7-21.6 15.1s-17.8 5.1-28.4 5.1c-10.4 0-19.8-1.7-28.3-5.2-8.5-3.4-15.7-8.4-21.7-15-5.9-6.5-10.5-14.6-13.7-24.1s-4.8-20.4-4.8-32.6c0-12 1.6-22.8 4.8-32.4 3.2-9.5 7.8-17.7 13.9-24.5 5.8-6.5 13-11.4 21.7-14.9 8.6-3.4 18-5.2 28.2-5.2 10.6 0 20.1 1.7 28.5 5.2 8.3 3.5 15.5 8.5 21.4 14.9zm-1.8 56.9c0-19.2-4.3-34-12.9-44.4s-20.3-15.6-35.2-15.6c-15 0-26.8 5.2-35.3 15.6-8.6 10.4-12.8 25.2-12.8 44.4 0 19.4 4.4 34.2 13.1 44.5s20.4 15.4 35.1 15.4 26.4-5.1 35-15.4 13-25.1 13-44.5z"/><path d="m5073 1265.8h-18.6v-63c0-5.1-.3-9.9-.9-14.3s-1.7-7.9-3.3-10.5c-1.7-2.8-4-4.8-7.1-6.2s-7.1-2-12.1-2c-5.1 0-10.4 1.3-16 3.8s-10.9 5.7-16 9.6v82.7h-18.6v-110.9h18.6v12.3c5.8-4.8 11.8-8.6 18-11.3s12.6-4.1 19.1-4.1c12 0 21.1 3.6 27.4 10.8s9.4 17.6 9.4 31.1v72z"/><path d="m5166.4 1264.8c-3.5.9-7.3 1.7-11.5 2.3-4.1.6-7.8.9-11.1.9-11.3 0-19.9-3-25.8-9.1s-8.8-15.8-8.8-29.2v-58.9h-12.6v-15.8h12.6v-31.8h18.6v31.8h38.5v15.7h-38.3v50.5c0 5.8.1 10.4.4 13.6.3 3.3 1.2 6.3 2.8 9.2 1.5 2.6 3.5 4.6 6 5.8s6.4 1.8 11.6 1.8c3 0 6.2-.4 9.5-1.3s5.7-1.6 7.1-2.2h1z"/><path d="m5275 1265.8h-18.5v-11.8c-1.7 1.1-3.9 2.7-6.7 4.7s-5.5 3.6-8.2 4.8c-3.1 1.5-6.7 2.8-10.7 3.8s-8.8 1.5-14.2 1.5c-10 0-18.4-3.3-25.4-9.9-6.9-6.6-10.4-15-10.4-25.3 0-8.4 1.8-15.2 5.4-20.4s8.7-9.3 15.4-12.2c6.7-3 14.8-5 24.3-6 9.5-1.1 19.6-1.8 30.4-2.4v-2.9c0-4.2-.7-7.7-2.2-10.5s-3.6-5-6.4-6.5c-2.6-1.5-5.8-2.5-9.5-3.1-3.7-.5-7.6-.8-11.6-.8-4.9 0-10.3.6-16.4 1.9s-12.2 3.2-18.6 5.6h-1v-18.9c3.6-1 8.9-2.1 15.8-3.3s13.6-1.8 20.3-1.8c7.8 0 14.6.6 20.4 1.9s10.8 3.5 15 6.6c4.2 3 7.3 7 9.5 11.8s3.3 10.8 3.3 17.9zm-18.6-27.3v-30.8c-5.7.3-12.4.8-20.1 1.5s-13.8 1.6-18.3 2.9c-5.4 1.5-9.7 3.9-13 7.1s-5 7.6-5 13.2c0 6.3 1.9 11.1 5.7 14.3s9.7 4.8 17.5 4.8c6.5 0 12.5-1.3 17.9-3.8 5.7-2.6 10.7-5.6 15.3-9.2z"/><path d="m5380 1175.3h-1c-2.8-.7-5.5-1.1-8.1-1.4s-5.7-.4-9.3-.4c-5.7 0-11.3 1.3-16.7 3.8s-10.5 5.8-15.5 9.9v78.6h-18.6v-110.8h18.6v16.4c7.4-5.9 13.9-10.2 19.6-12.6 5.7-2.5 11.4-3.7 17.3-3.7 3.2 0 5.6.1 7 .2 1.5.2 3.6.5 6.5.9v19.1z"/><path d="m5417.5 1136.5h-21v-19.3h21zm-1.2 129.3h-18.6v-110.8h18.6z"/><path d="m5547.6 1210.4c0 18-4.6 32.3-13.9 42.7s-21.6 15.7-37.2 15.7c-15.7 0-28.1-5.2-37.3-15.7-9.2-10.4-13.8-24.7-13.8-42.7s4.6-32.3 13.8-42.8 21.7-15.7 37.3-15.7c15.5 0 27.9 5.2 37.2 15.7s13.9 24.8 13.9 42.8zm-19.3 0c0-14.3-2.8-25-8.4-32s-13.4-10.5-23.4-10.5c-10.1 0-18 3.5-23.5 10.5-5.6 7-8.4 17.6-8.4 32 0 13.9 2.8 24.4 8.4 31.6s13.4 10.8 23.5 10.8c9.9 0 17.7-3.6 23.3-10.7 5.7-7.1 8.5-17.7 8.5-31.7z"/><path d="m3543.1 1060.3h-18.5v-11.8c-1.7 1.1-3.9 2.7-6.7 4.7s-5.5 3.6-8.2 4.8c-3.1 1.5-6.7 2.8-10.7 3.8s-8.8 1.5-14.2 1.5c-10 0-18.4-3.3-25.4-9.9-6.9-6.6-10.4-15-10.4-25.3 0-8.4 1.8-15.2 5.4-20.4s8.7-9.3 15.4-12.2c6.7-3 14.8-5 24.3-6 9.5-1.1 19.6-1.8 30.4-2.4v-2.9c0-4.2-.7-7.7-2.2-10.5s-3.6-5-6.4-6.5c-2.6-1.5-5.8-2.5-9.5-3.1-3.7-.5-7.6-.8-11.6-.8-4.9 0-10.3.6-16.4 1.9-6 1.3-12.2 3.2-18.6 5.6h-1v-18.9c3.6-1 8.9-2.1 15.8-3.3s13.6-1.8 20.3-1.8c7.8 0 14.6.6 20.4 1.9s10.8 3.5 15 6.6c4.2 3 7.3 7 9.5 11.8s3.3 10.8 3.3 17.9zm-18.5-27.3v-30.8c-5.7.3-12.4.8-20.1 1.5s-13.8 1.6-18.3 2.9c-5.4 1.5-9.7 3.9-13 7.1s-5 7.6-5 13.2c0 6.3 1.9 11.1 5.7 14.3s9.7 4.8 17.5 4.8c6.5 0 12.5-1.3 17.9-3.8 5.6-2.6 10.6-5.6 15.3-9.2z"/><path d="m2911 1208.4c0 18-4.6 32.3-13.9 42.7s-21.6 15.7-37.2 15.7c-15.7 0-28.1-5.2-37.3-15.7-9.2-10.4-13.8-24.7-13.8-42.7s4.6-32.3 13.8-42.8 21.7-15.7 37.3-15.7c15.5 0 27.9 5.2 37.2 15.7s13.9 24.8 13.9 42.8zm-19.2 0c0-14.3-2.8-25-8.4-32s-13.4-10.5-23.4-10.5c-10.1 0-18 3.5-23.5 10.5-5.6 7-8.4 17.6-8.4 32 0 13.9 2.8 24.4 8.4 31.6s13.4 10.8 23.5 10.8c9.9 0 17.7-3.6 23.3-10.7s8.5-17.7 8.5-31.7z"/></g></svg>