<?xml version="1.0" encoding="utf-8"?>
<!-- Generator: Adobe Illustrator 19.0.0, SVG Export Plug-In . SVG Version: 6.00 Build 0)  -->
<svg version="1.1" id="Capa_1" xmlns="http://www.w3.org/2000/svg" xmlns:xlink="http://www.w3.org/1999/xlink" x="0px" y="0px"
	 viewBox="0 0 960 560" style="enable-background:new 0 0 960 560;" xml:space="preserve">
<style type="text/css">
	.st0{fill:#381982;}
	.st1{fill:#FFFFFF;}
	.st2{fill:#B2B6FF;}
</style>
<g id="XMLID_97_">
	<path id="XMLID_98_" class="st0" d="M372.5,298.7c-0.8-1.4-1.4-2.8-1.9-4.1c-0.5-1.3-0.8-2.6-1.1-3.8c-0.3-1.2-0.4-2.4-0.4-3.5
		c0-1.9,0.3-3.6,0.8-5.1c0.5-1.6,1.4-2.9,2.6-4.1c1.1-1.2,2.3-2.1,3.5-2.9c1.3-0.8,2.6-1.4,3.9-1.8c0.2-0.1,0.4-0.1,0.6-0.1
		c0.2,0,0.4-0.1,0.6-0.1c0.2,0,0.4,0,0.6,0c0.2,0,0.4-0.1,0.6-0.1c0.2,0,0.4,0,0.6,0c0.2,0,0.4,0,0.6,0c0.1-0.1,0.3-0.1,0.5-0.1
		s0.4,0,0.6,0l3.9-0.1c2.3,0.3,4.2,0.7,6,1.3c1.7,0.6,3.1,1.4,4.1,2.3c1.1,1,1.9,2,2.5,3.2c0.5,1.2,0.9,2.4,0.9,3.8
		c0,0.6-0.1,1.3-0.2,2c-0.1,0.7-0.3,1.4-0.6,2.1c-0.3,0.7-0.5,1.4-0.9,2.1c-0.3,0.7-0.7,1.4-1.2,2.1c-0.6,0.8-1.2,1.7-2,2.6
		c-0.7,0.9-1.6,1.8-2.5,2.7c-0.8,0.8-1.8,1.7-2.9,2.5c-1.1,0.8-2.2,1.6-3.3,2.3l14.7,17.9c0.3-0.3,0.5-0.6,0.7-0.9
		c0.2-0.4,0.5-0.7,0.7-1c0.3-0.4,0.5-0.8,0.8-1.2c0.3-0.4,0.5-0.8,0.8-1.3c0.2-0.4,0.4-0.8,0.7-1.2c0.3-0.4,0.5-0.9,0.8-1.3
		c0.2-0.4,0.4-0.8,0.6-1.2c0.2-0.4,0.5-0.8,0.7-1.3c0.2-0.4,0.4-0.8,0.6-1.2c0.2-0.4,0.4-0.8,0.6-1.2s0.4-0.8,0.6-1.2
		c0.2-0.4,0.4-0.8,0.6-1.3c0.3-0.4,0.5-0.8,0.7-1.2c0.2-0.4,0.4-0.8,0.6-1.2l3.9-0.1l3.8,3.7c0.1,0.3,0.1,0.7-0.2,1.3
		c-0.3,0.6-0.7,1.4-1.4,2.5c-0.6,1-1.4,2.1-2.2,3.2c-0.8,1.1-1.7,2.3-2.6,3.5c-0.2,0.3-0.4,0.5-0.6,0.8c-0.2,0.3-0.4,0.5-0.6,0.8
		c-0.1,0.1-0.2,0.3-0.3,0.4c-0.1,0.1-0.2,0.3-0.3,0.4c-0.1,0.1-0.2,0.3-0.3,0.4c-0.1,0.1-0.2,0.3-0.3,0.4c-0.2,0.3-0.4,0.5-0.6,0.7
		c-0.2,0.2-0.4,0.4-0.5,0.6c-0.2,0.3-0.4,0.5-0.6,0.7c-0.2,0.2-0.4,0.4-0.6,0.6c-0.4,0.5-0.7,0.9-1.1,1.2c-0.3,0.4-0.6,0.7-1,1
		l12.2,13.6h-3.9h-11.4l-4.7-5.3c-0.3,0.3-0.5,0.6-0.7,0.9c-0.2,0.3-0.5,0.5-0.8,0.7c-0.8,0.7-1.8,1.4-3,2c-1.1,0.6-2.4,1.2-3.7,1.7
		c-1.4,0.5-2.8,0.8-4.3,1.1c-1.5,0.3-3.1,0.4-4.8,0.4h-3.9c-0.1,0-0.3,0-0.4,0c-0.2,0-0.3,0-0.4,0c-0.1,0-0.3,0-0.4,0
		c-0.1,0-0.3,0-0.4,0c-2.5,0-4.8-0.2-6.7-0.7c-2-0.5-3.6-1.2-5-2.2c-1.4-1-2.5-2.1-3.4-3.2c-0.9-1.1-1.7-2.3-2.2-3.5
		c-0.1-0.2-0.1-0.4-0.2-0.6c-0.1-0.2-0.1-0.4-0.2-0.7c-0.1-0.2-0.1-0.4-0.1-0.6c0-0.2-0.1-0.4-0.1-0.6c-0.1-0.2-0.1-0.4-0.1-0.6
		c0-0.2,0-0.4,0-0.6c0-0.1,0-0.3,0-0.5c0-0.2,0-0.4,0-0.6l-0.1-0.7v-0.6v-0.5v-0.6c0-1.9,0.3-3.6,0.8-5.2c0.5-1.6,1.3-3.1,2.3-4.4
		c1.1-1.3,2.2-2.5,3.4-3.6c1.2-1.1,2.4-2.1,3.6-3.1c0.3-0.2,0.6-0.4,0.9-0.6c0.3-0.2,0.6-0.4,0.9-0.6c0.3-0.2,0.5-0.4,0.9-0.6
		c0.3-0.2,0.6-0.4,0.9-0.6c0.6-0.3,1.1-0.7,1.7-1c0.5-0.4,1-0.7,1.5-0.9V303C374.2,301.6,373.3,300.1,372.5,298.7z M379,307.9
		c-0.2,0.2-0.4,0.4-0.5,0.5c-0.2,0.1-0.3,0.2-0.4,0.3c-0.1,0.1-0.3,0.3-0.4,0.4c-0.2,0.1-0.3,0.3-0.5,0.4c-0.8,0.7-1.7,1.5-2.5,2.4
		c-0.8,0.9-1.6,1.8-2.3,2.8c-0.7,1-1.2,2-1.6,3.2c-0.4,1.2-0.5,2.4-0.5,3.7c0,0.1,0,0.3,0,0.4c0,0.2,0,0.3,0,0.4c0,0.2,0,0.4,0,0.5
		c0,0.2,0,0.3,0,0.4c0.1,0.3,0.1,0.7,0.2,1c0.1,0.4,0.2,0.7,0.2,1c0.7,1.8,1.6,3.4,2.5,4.7c1,1.3,2.1,2.4,3.3,3.2c1,0.6,2,1.1,3,1.5
		c1,0.4,2,0.6,3.1,0.8c1.2-0.1,2.3-0.4,3.4-0.7c1.1-0.3,2.2-0.7,3.2-1.3c1.2-0.6,2.2-1.2,3.2-1.9c1-0.7,1.9-1.5,2.7-2.3V329
		L379,307.9z M384.8,297c0.5-0.3,1-0.7,1.6-1.3c0.5-0.5,1.1-1.1,1.6-1.7c0.8-1,1.5-2,2-3.1c0.6-1.1,1.1-2.1,1.5-3.2
		c0.1-0.1,0.1-0.3,0.1-0.4c0-0.2,0.1-0.3,0.1-0.5c0-0.1,0-0.3,0-0.4c0-0.2,0.1-0.3,0.1-0.5c0.1-0.3,0.1-0.6,0.1-1c0-0.3,0-0.6,0-1
		c0-0.8-0.1-1.6-0.3-2.4c-0.2-0.7-0.6-1.4-1.1-2.1c-0.5-0.7-1.1-1.3-1.9-1.8c-0.8-0.5-1.8-0.9-2.9-1.1h-0.1
		c-0.7,0.1-1.4,0.4-1.9,0.8c-0.6,0.4-1.1,0.9-1.6,1.5c-0.6,0.8-1,1.8-1.3,2.8c-0.3,1-0.4,2.2-0.4,3.4c0,0.5,0,1.1,0.1,1.6
		c0.1,0.5,0.1,1.1,0.2,1.6c0.1,0.6,0.3,1.1,0.4,1.7c0.1,0.5,0.3,1.1,0.5,1.6c0.2,0.6,0.4,1.3,0.7,1.9c0.3,0.6,0.6,1.2,1,1.9
		c0.2,0.3,0.4,0.6,0.6,1C384.3,296.5,384.6,296.8,384.8,297L384.8,297z"/>
</g>
<g id="XMLID_28_">
	<path id="XMLID_29_" class="st0" d="M422.3,423.1c-1.5,0-2.8,0.2-4.1,0.7c-1.3,0.5-2.4,1.2-3.3,2.1s-1.7,2.1-2.2,3.4
		s-0.8,3-0.8,4.8c0,1.8,0.3,3.4,0.8,4.7c0.5,1.3,1.2,2.4,2.1,3.3c0.9,0.9,2,1.5,3.3,1.9c1.3,0.4,2.8,0.6,4.4,0.6
		c0.4,0,0.9,0,1.4-0.1c0.5,0,1-0.1,1.5-0.2s1-0.2,1.4-0.3c0.5-0.1,0.9-0.2,1.3-0.4v2.8c-0.8,0.3-1.7,0.5-2.7,0.7
		c-1,0.2-2.1,0.2-3.1,0.2c-2.2,0-4.1-0.3-5.8-0.9c-1.7-0.6-3.1-1.5-4.2-2.6c-1.1-1.1-2-2.5-2.6-4.2c-0.6-1.6-0.9-3.5-0.9-5.6
		c0-2,0.3-3.9,0.9-5.6c0.6-1.7,1.5-3.2,2.7-4.4c1.2-1.2,2.6-2.2,4.3-2.9c1.7-0.7,3.5-1,5.6-1c0.5,0,1.1,0,1.6,0.1s1,0.1,1.5,0.2
		c0.5,0.1,0.9,0.2,1.4,0.3c0.4,0.1,0.8,0.2,1.1,0.4v2.8c-0.8-0.3-1.7-0.5-2.6-0.7C424.2,423.2,423.2,423.1,422.3,423.1z"/>
	<path id="XMLID_32_" class="st0" d="M449.5,437.7c0,1.5-0.2,2.8-0.6,4c-0.4,1.2-1,2.2-1.8,3.1c-0.8,0.9-1.7,1.5-2.8,2
		c-1.1,0.5-2.3,0.7-3.6,0.7c-1.4,0-2.6-0.2-3.7-0.7c-1.1-0.5-2-1.1-2.8-2c-0.8-0.9-1.3-1.9-1.8-3.1c-0.4-1.2-0.6-2.5-0.6-4
		c0-1.5,0.2-2.8,0.6-4c0.4-1.2,1-2.2,1.8-3.1c0.8-0.9,1.7-1.5,2.8-2c1.1-0.5,2.3-0.7,3.7-0.7c1.4,0,2.6,0.2,3.7,0.7
		c1.1,0.5,2,1.1,2.8,2c0.8,0.9,1.3,1.9,1.7,3.1C449.3,434.9,449.5,436.2,449.5,437.7z M446.3,437.7c0-1.1-0.1-2.2-0.4-3.1
		c-0.3-0.9-0.7-1.7-1.2-2.3s-1.1-1.1-1.8-1.4c-0.7-0.3-1.5-0.5-2.3-0.5s-1.6,0.2-2.3,0.5c-0.7,0.3-1.3,0.8-1.8,1.4s-0.9,1.4-1.2,2.3
		c-0.3,0.9-0.4,1.9-0.4,3.1c0,1.1,0.1,2.2,0.4,3c0.3,0.9,0.7,1.6,1.2,2.3c0.5,0.6,1.1,1.1,1.8,1.4s1.5,0.5,2.3,0.5
		c0.8,0,1.6-0.2,2.3-0.5c0.7-0.3,1.3-0.8,1.8-1.4s0.9-1.4,1.2-2.3C446.2,439.8,446.3,438.8,446.3,437.7z"/>
	<path id="XMLID_35_" class="st0" d="M469.5,447h-3v-12c0-0.8-0.1-1.5-0.3-2.1s-0.4-1-0.8-1.4c-0.3-0.4-0.7-0.6-1.2-0.8
		c-0.5-0.2-1-0.3-1.6-0.3c-1.1,0-2.1,0.3-3,0.9c-0.9,0.6-1.7,1.4-2.4,2.4V447h-3v-18.6h2.4l0.6,2.6h0.1c0.3-0.4,0.7-0.8,1.1-1.2
		c0.4-0.4,0.8-0.7,1.3-1c0.5-0.3,1-0.5,1.6-0.7c0.6-0.2,1.2-0.2,1.9-0.2c1.4,0,2.5,0.3,3.4,1c0.9,0.7,1.6,1.6,2.1,2.7h0.1
		c0.8-1.2,1.8-2.1,2.8-2.7c1.1-0.7,2.3-1,3.7-1c0.7,0,1.3,0.1,2.1,0.3c0.7,0.2,1.4,0.5,2,1c0.6,0.5,1.1,1.2,1.5,2
		c0.4,0.9,0.6,2,0.6,3.3V447h-3v-12c0-0.8-0.1-1.5-0.3-2.1s-0.4-1-0.8-1.4c-0.3-0.4-0.7-0.6-1.2-0.8c-0.5-0.2-1-0.3-1.6-0.3
		c-1.1,0-2.1,0.3-3,0.9c-0.9,0.6-1.7,1.4-2.4,2.4V447z"/>
	<path id="XMLID_42_" class="st0" d="M502.8,447h-3v-12c0-0.8-0.1-1.5-0.3-2.1c-0.2-0.6-0.4-1-0.8-1.4c-0.3-0.4-0.7-0.6-1.2-0.8
		c-0.5-0.2-1-0.3-1.6-0.3c-1.1,0-2.1,0.3-3,0.9c-0.9,0.6-1.7,1.4-2.4,2.4V447h-3v-18.6h2.4l0.6,2.6h0.1c0.3-0.4,0.7-0.8,1.1-1.2
		c0.4-0.4,0.8-0.7,1.3-1s1-0.5,1.6-0.7c0.6-0.2,1.2-0.2,1.9-0.2c1.4,0,2.5,0.3,3.5,1c0.9,0.7,1.6,1.6,2.1,2.7h0.1
		c0.8-1.2,1.8-2.1,2.8-2.7c1.1-0.7,2.3-1,3.7-1c0.7,0,1.3,0.1,2.1,0.3c0.7,0.2,1.4,0.5,2,1c0.6,0.5,1.1,1.2,1.5,2
		c0.4,0.9,0.6,2,0.6,3.3V447h-3v-12c0-0.8-0.1-1.5-0.3-2.1c-0.2-0.6-0.4-1-0.8-1.4c-0.3-0.4-0.7-0.6-1.2-0.8c-0.5-0.2-1-0.3-1.6-0.3
		c-1.1,0-2.1,0.3-3,0.9c-0.9,0.6-1.7,1.4-2.4,2.4V447z"/>
	<path id="XMLID_44_" class="st0" d="M528.2,447.5c-1,0-1.8-0.1-2.6-0.3c-0.8-0.2-1.4-0.5-2-0.9c-0.6-0.4-1.1-0.8-1.5-1.4
		s-0.7-1.1-1-1.7c-0.2-0.5-0.3-1-0.4-1.5s-0.1-1.2-0.1-1.8v-11.4h3v11.4c0,1,0.1,1.9,0.4,2.6c0.3,0.8,0.8,1.4,1.5,1.9
		c0.7,0.5,1.6,0.7,2.7,0.7c1.1,0,2.1-0.2,2.8-0.7c0.7-0.5,1.2-1.2,1.5-2c0.2-0.6,0.3-1.4,0.3-2.4v-11.4h3v11.4c0,0.6,0,1.2-0.1,1.8
		c-0.1,0.5-0.2,1-0.3,1.5c-0.2,0.6-0.6,1.2-1,1.8c-0.4,0.5-0.9,1-1.5,1.4c-0.6,0.4-1.3,0.7-2.1,0.9
		C530.1,447.4,529.2,447.5,528.2,447.5z"/>
	<path id="XMLID_46_" class="st0" d="M544.5,430.9L544.5,430.9c0.4-0.4,0.8-0.8,1.2-1.2c0.4-0.4,0.9-0.7,1.4-1s1.1-0.5,1.7-0.7
		c0.6-0.2,1.3-0.2,2-0.2c0.8,0,1.6,0.1,2.4,0.4c0.7,0.2,1.4,0.6,1.9,1.1s1,1.2,1.3,2s0.5,1.9,0.5,3.1V447h-3v-12
		c0-1.6-0.3-2.8-0.9-3.5c-0.6-0.7-1.5-1.1-2.7-1.1c-1,0-2.1,0.3-3,0.9c-1,0.6-1.8,1.4-2.5,2.4V447h-3v-18.6h2.4L544.5,430.9z"/>
	<path id="XMLID_48_" class="st0" d="M562.9,424v-3.4h3v3.4H562.9z M562.9,447v-18.6h3V447H562.9z"/>
	<path id="XMLID_51_" class="st0" d="M580,427.9c0.9,0,1.8,0.1,2.6,0.3s1.5,0.5,2.1,0.8v2.5c-0.8-0.3-1.6-0.5-2.3-0.7
		c-0.7-0.2-1.4-0.2-2.1-0.2c-0.8,0-1.5,0.1-2.3,0.4s-1.4,0.7-2,1.2s-1.1,1.3-1.4,2.3c-0.4,0.9-0.5,2.1-0.5,3.5c0,1,0.1,1.9,0.4,2.8
		c0.3,0.8,0.7,1.6,1.2,2.2c0.5,0.6,1.2,1.1,2,1.5c0.8,0.3,1.7,0.5,2.8,0.5c0.8,0,1.5-0.1,2.3-0.2c0.8-0.2,1.5-0.4,2.3-0.7v2.5
		c-0.2,0.1-0.5,0.3-0.9,0.4c-0.4,0.1-0.8,0.2-1.2,0.3c-0.4,0.1-0.9,0.2-1.4,0.2c-0.5,0.1-1,0.1-1.5,0.1c-1.3,0-2.4-0.2-3.6-0.6
		s-2.1-1-2.9-1.7c-0.8-0.8-1.5-1.8-2-3s-0.7-2.6-0.7-4.3c0-1.2,0.1-2.3,0.4-3.3c0.3-1,0.6-1.8,1-2.6c0.4-0.7,1-1.4,1.6-1.9
		s1.2-1,1.9-1.3s1.4-0.6,2.1-0.7C578.7,427.9,579.4,427.9,580,427.9z"/>
	<path id="XMLID_53_" class="st0" d="M600.6,444.9L600.6,444.9c-0.3,0.3-0.6,0.6-1,0.9c-0.4,0.3-0.8,0.6-1.3,0.8
		c-0.5,0.2-1,0.4-1.6,0.6s-1.2,0.2-1.9,0.2c-0.9,0-1.7-0.1-2.5-0.4c-0.8-0.3-1.4-0.7-1.9-1.2c-0.5-0.5-1-1.1-1.3-1.9
		c-0.3-0.7-0.5-1.6-0.5-2.5c0-0.9,0.2-1.8,0.5-2.5c0.3-0.7,0.8-1.4,1.4-1.9c0.6-0.5,1.3-0.9,2.2-1.2s1.8-0.4,2.8-0.4
		c1,0,1.9,0.1,2.7,0.3c0.8,0.2,1.6,0.4,2.2,0.6h0.1v-1.3c0-0.5,0-1-0.1-1.4c-0.1-0.4-0.2-0.7-0.3-1c-0.3-0.6-0.9-1.1-1.6-1.6
		c-0.7-0.4-1.8-0.6-3-0.6c-0.9,0-1.8,0.1-2.7,0.3c-0.8,0.2-1.7,0.4-2.5,0.7V429c0.3-0.2,0.7-0.3,1.1-0.4c0.4-0.1,0.9-0.3,1.3-0.4
		s1-0.2,1.5-0.2c0.5-0.1,1-0.1,1.6-0.1c1.9,0,3.4,0.3,4.6,1c1.2,0.7,2.1,1.5,2.6,2.6c0.2,0.4,0.3,0.9,0.4,1.4s0.1,1.1,0.1,1.7V447
		h-2.5L600.6,444.9z M600.4,438.8c-0.6-0.2-1.2-0.3-2-0.5c-0.8-0.1-1.6-0.2-2.5-0.2c-1.3,0-2.3,0.3-3,0.8s-1.1,1.4-1.1,2.5
		c0,0.6,0.1,1.1,0.3,1.5c0.2,0.4,0.4,0.8,0.8,1.1c0.3,0.3,0.7,0.5,1.1,0.6c0.4,0.1,0.9,0.2,1.4,0.2c0.7,0,1.3-0.1,1.8-0.3
		s1.1-0.4,1.5-0.7c0.4-0.3,0.8-0.5,1.1-0.8c0.3-0.3,0.5-0.5,0.7-0.6V438.8z"/>
	<path id="XMLID_56_" class="st0" d="M619.1,447c-0.3,0.1-0.7,0.2-1.2,0.3s-1.2,0.1-1.9,0.2c-1,0-1.8-0.1-2.5-0.4
		c-0.7-0.2-1.3-0.6-1.8-1c-0.5-0.5-0.8-1-1.1-1.6c-0.2-0.6-0.4-1.4-0.4-2.1V431h-3.6v-2.6h3.6v-5.1h3v5.1h5.6v2.6h-5.6v10.9
		c0,0.4,0.1,0.8,0.2,1.2s0.3,0.7,0.6,1c0.3,0.3,0.6,0.5,1,0.6c0.4,0.1,0.9,0.2,1.5,0.2c0.4,0,0.8,0,1.3-0.1s0.9-0.2,1.2-0.3V447z"/>
	<path id="XMLID_58_" class="st0" d="M632.1,444.8c1,0,1.9-0.1,2.8-0.2c0.8-0.2,1.7-0.4,2.5-0.7v2.5c-0.7,0.3-1.5,0.6-2.5,0.8
		c-1,0.2-2,0.3-3.2,0.3c-1.3,0-2.6-0.2-3.8-0.5c-1.2-0.3-2.2-0.9-3-1.6c-0.9-0.8-1.5-1.7-2-3c-0.5-1.2-0.7-2.7-0.7-4.4
		c0-1.7,0.2-3.2,0.7-4.4c0.5-1.2,1.1-2.3,1.9-3.1s1.7-1.5,2.7-1.9s2.1-0.6,3.2-0.6c1,0,2,0.2,2.9,0.5c0.9,0.3,1.7,0.9,2.4,1.6
		c0.7,0.7,1.2,1.7,1.6,2.9c0.4,1.2,0.6,2.6,0.6,4.2c0,0.2,0,0.3,0,0.4c0,0.1,0,0.4,0,0.8h-12.9c0,1.2,0.2,2.2,0.5,3s0.8,1.5,1.5,2
		c0.6,0.5,1.3,0.9,2.2,1.1S631.1,444.8,632.1,444.8z M630.5,430.5c-0.7,0-1.4,0.1-2,0.4c-0.6,0.3-1.1,0.6-1.6,1.1
		c-0.5,0.5-0.8,1-1.1,1.7c-0.3,0.6-0.4,1.3-0.5,2h9.5c0-0.7-0.1-1.4-0.3-2c-0.2-0.6-0.5-1.2-0.8-1.7c-0.4-0.5-0.8-0.8-1.4-1.1
		C631.8,430.6,631.2,430.5,630.5,430.5z"/>
	<path id="XMLID_61_" class="st0" d="M643.9,442.7h3.7l-3.3,11.9h-3.7L643.9,442.7z"/>
	<path id="XMLID_63_" class="st0" d="M673.3,423.1c-1.5,0-2.8,0.2-4.1,0.7c-1.3,0.5-2.4,1.2-3.3,2.1c-0.9,0.9-1.7,2.1-2.2,3.4
		c-0.5,1.4-0.8,3-0.8,4.8c0,1.8,0.3,3.4,0.8,4.7c0.5,1.3,1.2,2.4,2.1,3.3c0.9,0.9,2,1.5,3.3,1.9c1.3,0.4,2.8,0.6,4.4,0.6
		c0.4,0,0.9,0,1.4-0.1c0.5,0,1-0.1,1.5-0.2s1-0.2,1.4-0.3c0.5-0.1,0.9-0.2,1.3-0.4v2.8c-0.8,0.3-1.7,0.5-2.7,0.7
		c-1,0.2-2.1,0.2-3.1,0.2c-2.2,0-4.1-0.3-5.8-0.9c-1.7-0.6-3.1-1.5-4.2-2.6c-1.1-1.1-2-2.5-2.6-4.2c-0.6-1.6-0.9-3.5-0.9-5.6
		c0-2,0.3-3.9,0.9-5.6c0.6-1.7,1.5-3.2,2.7-4.4c1.2-1.2,2.6-2.2,4.3-2.9c1.7-0.7,3.5-1,5.6-1c0.5,0,1.1,0,1.6,0.1s1,0.1,1.5,0.2
		c0.5,0.1,0.9,0.2,1.4,0.3c0.4,0.1,0.8,0.2,1.1,0.4v2.8c-0.8-0.3-1.7-0.5-2.6-0.7C675.2,423.2,674.3,423.1,673.3,423.1z"/>
	<path id="XMLID_65_" class="st0" d="M700.5,437.7c0,1.5-0.2,2.8-0.6,4s-1,2.2-1.8,3.1c-0.8,0.9-1.7,1.5-2.8,2
		c-1.1,0.5-2.3,0.7-3.6,0.7c-1.4,0-2.6-0.2-3.7-0.7c-1.1-0.5-2-1.1-2.8-2c-0.8-0.9-1.3-1.9-1.8-3.1c-0.4-1.2-0.6-2.5-0.6-4
		c0-1.5,0.2-2.8,0.6-4s1-2.2,1.8-3.1c0.8-0.9,1.7-1.5,2.8-2c1.1-0.5,2.3-0.7,3.7-0.7c1.4,0,2.6,0.2,3.7,0.7c1.1,0.5,2,1.1,2.8,2
		c0.8,0.9,1.3,1.9,1.7,3.1C700.3,434.9,700.5,436.2,700.5,437.7z M697.4,437.7c0-1.1-0.1-2.2-0.4-3.1c-0.3-0.9-0.7-1.7-1.2-2.3
		c-0.5-0.6-1.1-1.1-1.8-1.4s-1.5-0.5-2.3-0.5s-1.6,0.2-2.3,0.5s-1.3,0.8-1.8,1.4c-0.5,0.6-0.9,1.4-1.2,2.3c-0.3,0.9-0.4,1.9-0.4,3.1
		c0,1.1,0.1,2.2,0.4,3c0.3,0.9,0.7,1.6,1.2,2.3s1.1,1.1,1.8,1.4s1.5,0.5,2.3,0.5s1.6-0.2,2.3-0.5c0.7-0.3,1.3-0.8,1.8-1.4
		c0.5-0.6,0.9-1.4,1.2-2.3C697.2,439.8,697.4,438.8,697.4,437.7z"/>
	<path id="XMLID_68_" class="st0" d="M708.3,430.9L708.3,430.9c0.4-0.4,0.8-0.8,1.2-1.2c0.4-0.4,0.9-0.7,1.4-1s1.1-0.5,1.7-0.7
		c0.6-0.2,1.3-0.2,2-0.2c0.8,0,1.6,0.1,2.4,0.4c0.7,0.2,1.4,0.6,1.9,1.1s1,1.2,1.3,2s0.5,1.9,0.5,3.1V447h-3v-12
		c0-1.6-0.3-2.8-0.9-3.5c-0.6-0.7-1.5-1.1-2.7-1.1c-1,0-2.1,0.3-3,0.9c-1,0.6-1.8,1.4-2.5,2.4V447h-3v-18.6h2.4L708.3,430.9z"/>
	<path id="XMLID_70_" class="st0" d="M729.4,430.9L729.4,430.9c0.4-0.4,0.8-0.8,1.2-1.2c0.4-0.4,0.9-0.7,1.4-1s1.1-0.5,1.7-0.7
		c0.6-0.2,1.3-0.2,2-0.2c0.8,0,1.6,0.1,2.4,0.4c0.7,0.2,1.4,0.6,1.9,1.1s1,1.2,1.3,2s0.5,1.9,0.5,3.1V447h-3v-12
		c0-1.6-0.3-2.8-0.9-3.5c-0.6-0.7-1.5-1.1-2.7-1.1c-1,0-2.1,0.3-3,0.9c-1,0.6-1.8,1.4-2.5,2.4V447h-3v-18.6h2.4L729.4,430.9z"/>
	<path id="XMLID_72_" class="st0" d="M756.5,444.8c1,0,1.9-0.1,2.8-0.2c0.8-0.2,1.7-0.4,2.5-0.7v2.5c-0.7,0.3-1.5,0.6-2.5,0.8
		c-1,0.2-2,0.3-3.2,0.3c-1.3,0-2.6-0.2-3.8-0.5c-1.2-0.3-2.2-0.9-3-1.6c-0.9-0.8-1.5-1.7-2-3c-0.5-1.2-0.7-2.7-0.7-4.4
		c0-1.7,0.2-3.2,0.7-4.4c0.5-1.2,1.1-2.3,1.9-3.1s1.7-1.5,2.7-1.9s2.1-0.6,3.2-0.6c1,0,2,0.2,2.9,0.5c0.9,0.3,1.7,0.9,2.4,1.6
		c0.7,0.7,1.2,1.7,1.6,2.9c0.4,1.2,0.6,2.6,0.6,4.2c0,0.2,0,0.3,0,0.4c0,0.1,0,0.4,0,0.8h-12.9c0,1.2,0.2,2.2,0.5,3s0.8,1.5,1.5,2
		c0.6,0.5,1.3,0.9,2.2,1.1S755.5,444.8,756.5,444.8z M754.9,430.5c-0.7,0-1.4,0.1-2,0.4c-0.6,0.3-1.1,0.6-1.6,1.1
		c-0.5,0.5-0.8,1-1.1,1.7c-0.3,0.6-0.4,1.3-0.5,2h9.5c0-0.7-0.1-1.4-0.3-2c-0.2-0.6-0.5-1.2-0.8-1.7c-0.4-0.5-0.8-0.8-1.4-1.1
		C756.2,430.6,755.6,430.5,754.9,430.5z"/>
	<path id="XMLID_75_" class="st0" d="M775.6,427.9c0.9,0,1.8,0.1,2.6,0.3s1.5,0.5,2.1,0.8v2.5c-0.8-0.3-1.6-0.5-2.3-0.7
		c-0.7-0.2-1.4-0.2-2.1-0.2c-0.8,0-1.5,0.1-2.3,0.4s-1.4,0.7-2,1.2s-1.1,1.3-1.4,2.3c-0.4,0.9-0.5,2.1-0.5,3.5c0,1,0.1,1.9,0.4,2.8
		c0.3,0.8,0.7,1.6,1.2,2.2c0.5,0.6,1.2,1.1,2,1.5c0.8,0.3,1.7,0.5,2.8,0.5c0.8,0,1.5-0.1,2.3-0.2c0.8-0.2,1.5-0.4,2.3-0.7v2.5
		c-0.2,0.1-0.5,0.3-0.9,0.4c-0.4,0.1-0.8,0.2-1.2,0.3c-0.4,0.1-0.9,0.2-1.4,0.2c-0.5,0.1-1,0.1-1.5,0.1c-1.3,0-2.4-0.2-3.6-0.6
		s-2.1-1-2.9-1.7c-0.8-0.8-1.5-1.8-2-3s-0.7-2.6-0.7-4.3c0-1.2,0.1-2.3,0.4-3.3c0.3-1,0.6-1.8,1-2.6c0.4-0.7,1-1.4,1.6-1.9
		s1.2-1,1.9-1.3s1.4-0.6,2.1-0.7C774.3,427.9,775,427.9,775.6,427.9z"/>
	<path id="XMLID_77_" class="st0" d="M795.1,447c-0.3,0.1-0.7,0.2-1.2,0.3s-1.2,0.1-1.9,0.2c-1,0-1.8-0.1-2.5-0.4
		c-0.7-0.2-1.3-0.6-1.8-1c-0.5-0.5-0.8-1-1.1-1.6c-0.2-0.6-0.4-1.4-0.4-2.1V431h-3.6v-2.6h3.6v-5.1h3v5.1h5.6v2.6h-5.6v10.9
		c0,0.4,0.1,0.8,0.2,1.2s0.3,0.7,0.6,1c0.3,0.3,0.6,0.5,1,0.6c0.4,0.1,0.9,0.2,1.5,0.2c0.4,0,0.8,0,1.3-0.1s0.9-0.2,1.2-0.3V447z"/>
	<path id="XMLID_79_" class="st0" d="M828.4,433.3c0,1.9-0.4,3.6-1,5.2c-0.6,1.5-1.5,2.9-2.5,4.1c0.6,0.6,1.1,1.1,1.6,1.6
		c0.5,0.5,0.9,1,1.3,1.4s0.7,0.7,0.9,1c0.2,0.2,0.4,0.4,0.5,0.5h-3.9c-0.1-0.1-0.3-0.3-0.8-0.8c-0.5-0.5-1-1-1.7-1.7
		c-1.3,1-2.6,1.7-4.1,2.2s-3,0.8-4.5,0.8c-1.4,0-2.7-0.2-3.7-0.6c-1-0.4-1.9-0.9-2.5-1.5c-0.7-0.6-1.1-1.4-1.4-2.2
		c-0.3-0.8-0.5-1.6-0.5-2.5c0-1,0.1-1.9,0.4-2.7s0.7-1.5,1.2-2s1.1-1.1,1.7-1.6s1.3-0.9,2-1.3c-0.5-0.5-1-1-1.5-1.5
		c-0.5-0.5-0.9-1-1.2-1.5c-0.3-0.5-0.6-1.1-0.8-1.7c-0.2-0.6-0.3-1.2-0.3-2c0-1,0.2-1.8,0.5-2.6c0.3-0.8,0.8-1.4,1.5-1.9
		c0.6-0.5,1.4-0.9,2.3-1.2s1.9-0.4,3-0.4c1,0,1.9,0.1,2.8,0.4c0.9,0.2,1.6,0.6,2.2,1.1s1.1,1.1,1.5,1.8c0.4,0.7,0.5,1.5,0.5,2.5
		c0,1-0.2,1.8-0.5,2.6s-0.8,1.4-1.4,2s-1.2,1.1-1.9,1.6c-0.7,0.5-1.5,0.9-2.2,1.3c0.4,0.4,0.9,0.9,1.5,1.5c0.5,0.6,1.1,1.1,1.7,1.8
		c0.6,0.6,1.2,1.2,1.8,1.9c0.6,0.6,1.2,1.3,1.9,1.9c0.7-0.9,1.2-1.9,1.6-3.1c0.4-1.2,0.6-2.6,0.6-4.2H828.4z M814.3,444.9
		c0.5,0,1,0,1.6-0.1c0.6-0.1,1.1-0.2,1.7-0.4c0.6-0.2,1.2-0.4,1.7-0.7c0.6-0.3,1.1-0.6,1.7-1c-0.6-0.6-1.3-1.3-2-2
		c-0.7-0.7-1.3-1.4-2-2c-0.7-0.7-1.3-1.3-1.9-1.9c-0.6-0.6-1.1-1.2-1.6-1.7c-0.6,0.3-1.1,0.7-1.6,1c-0.5,0.4-0.9,0.8-1.3,1.2
		c-0.4,0.4-0.7,0.9-0.9,1.4c-0.2,0.5-0.3,1.1-0.3,1.8c0,0.6,0.1,1.1,0.3,1.7c0.2,0.5,0.5,1,0.9,1.4c0.4,0.4,0.9,0.8,1.5,1
		C812.8,444.8,813.5,444.9,814.3,444.9z M811,426.4c0,0.5,0.1,0.9,0.2,1.4c0.1,0.4,0.4,0.9,0.6,1.3s0.6,0.8,1,1.3
		c0.4,0.4,0.9,0.9,1.4,1.4c0.6-0.3,1.2-0.7,1.8-1s1.1-0.7,1.5-1.2c0.4-0.4,0.8-0.9,1-1.4s0.4-1.1,0.4-1.8c0-0.6-0.1-1.1-0.3-1.6
		c-0.2-0.4-0.5-0.8-0.8-1.1c-0.4-0.3-0.8-0.5-1.3-0.6s-1-0.2-1.6-0.2c-1.2,0-2.2,0.3-2.9,0.9C811.4,424.4,811,425.2,811,426.4z"/>
	<path id="XMLID_83_" class="st0" d="M849.2,447H846v-23.3h-8.8v-2.9h20.7v2.9h-8.8V447z"/>
	<path id="XMLID_85_" class="st0" d="M864.9,430.9L864.9,430.9c0.4-0.4,0.8-0.8,1.2-1.2c0.4-0.4,0.9-0.7,1.4-1s1.1-0.5,1.6-0.6
		c0.6-0.2,1.2-0.2,1.9-0.2c0.7,0,1.4,0.1,2.1,0.3c0.7,0.2,1.4,0.5,2,1c0.6,0.5,1.1,1.2,1.5,2c0.4,0.9,0.6,2,0.6,3.3V447h-3v-12
		c0-1.5-0.3-2.6-0.9-3.4s-1.5-1.1-2.8-1.1c-1.1,0-2.1,0.3-3.1,0.9c-1,0.6-1.8,1.4-2.5,2.4V447h-3v-28.4h3V430.9z"/>
	<path id="XMLID_87_" class="st0" d="M893.2,430.8H893c-0.7,0-1.4,0.1-2.1,0.2c-0.7,0.1-1.3,0.3-1.9,0.6c-0.6,0.3-1.2,0.6-1.6,1
		c-0.5,0.4-0.9,0.9-1.2,1.4v13h-3v-18.6h2.4l0.6,3h0.1c0.3-0.5,0.7-0.9,1.1-1.4c0.4-0.4,0.9-0.8,1.5-1.1c0.5-0.3,1.2-0.6,1.8-0.7
		c0.7-0.2,1.3-0.3,2.1-0.3c0.1,0,0.3,0,0.4,0c0.1,0,0.3,0,0.4,0V430.8z"/>
	<path id="XMLID_89_" class="st0" d="M896.6,424v-3.4h3v3.4H896.6z M896.7,447v-18.6h3V447H896.7z"/>
	<path id="XMLID_92_" class="st0" d="M912.1,443.9c0.4-1.4,1.1-3.1,1.8-5.2l3.7-10.3h3l-7,18.6h-3.2l-7-18.6h3l3.7,10.3
		C910.9,440.7,911.5,442.5,912.1,443.9L912.1,443.9z"/>
	<path id="XMLID_94_" class="st0" d="M933.2,444.8c1,0,1.9-0.1,2.8-0.2c0.8-0.2,1.7-0.4,2.5-0.7v2.5c-0.7,0.3-1.5,0.6-2.5,0.8
		c-1,0.2-2,0.3-3.2,0.3c-1.3,0-2.6-0.2-3.8-0.5c-1.2-0.3-2.2-0.9-3-1.6c-0.9-0.8-1.5-1.7-2-3c-0.5-1.2-0.7-2.7-0.7-4.4
		c0-1.7,0.2-3.2,0.7-4.4c0.5-1.2,1.1-2.3,1.9-3.1s1.7-1.5,2.7-1.9s2.1-0.6,3.2-0.6c1,0,2,0.2,2.9,0.5c0.9,0.3,1.7,0.9,2.4,1.6
		c0.7,0.7,1.2,1.7,1.6,2.9c0.4,1.2,0.6,2.6,0.6,4.2c0,0.2,0,0.3,0,0.4c0,0.1,0,0.4,0,0.8h-12.9c0,1.2,0.2,2.2,0.5,3s0.8,1.5,1.5,2
		c0.6,0.5,1.3,0.9,2.2,1.1S932.2,444.8,933.2,444.8z M931.6,430.5c-0.7,0-1.4,0.1-2,0.4c-0.6,0.3-1.1,0.6-1.6,1.1
		c-0.5,0.5-0.8,1-1.1,1.7c-0.3,0.6-0.4,1.3-0.5,2h9.5c0-0.7-0.1-1.4-0.3-2c-0.2-0.6-0.5-1.2-0.8-1.7c-0.4-0.5-0.8-0.8-1.4-1.1
		C932.9,430.6,932.3,430.5,931.6,430.5z"/>
</g>
<g id="XMLID_18_">
	<path id="XMLID_19_" class="st0" d="M329.9,178.3c-2-1.2-3.3-3.3-3.9-6.3c-0.6-3-1.1-6.2-1.5-9.6c-0.4-3.4-1.1-6.6-2-9.7
		c-0.9-3.1-2.8-5.4-5.6-6.9c4.1-2.4,9.1-3.9,14.9-4.7c5.8-0.7,12.4-1.1,19.7-1.1h62.9c7.3,0,13.8,0.4,19.6,1.1
		c5.8,0.7,10.7,2.3,14.8,4.7c-2.8,1.5-4.6,3.7-5.6,6.9c-0.9,3.1-1.6,6.4-2,9.7c-0.4,3.4-0.9,6.6-1.5,9.6c-0.6,3-1.9,5.1-3.9,6.3
		c-0.3-2.3-1.4-5.3-3.5-9.3c-2.1-3.9-4.8-7.7-8.4-11.4c-3.5-3.7-7.7-6.9-12.5-9.6c-4.8-2.7-10.2-4.1-16.2-4.1v69.6
		c0,4.9,0.1,10.1,0.4,15.6c0.3,5.5,0.8,10.7,1.7,15.6c0.9,4.9,2.1,9.3,3.6,13c1.5,3.8,3.5,6.4,6.1,7.9h-48.4
		c2.5-1.5,4.6-4.1,6.2-7.9s2.8-8.1,3.6-13c0.8-4.9,1.3-10.1,1.6-15.6c0.3-5.5,0.4-10.7,0.4-15.6v-69.6c-6,0-11.4,1.4-16.2,4.1
		c-4.8,2.7-9,5.9-12.5,9.6c-3.5,3.7-6.3,7.5-8.4,11.4C331.3,173,330.1,176.1,329.9,178.3z"/>
	<path id="XMLID_21_" class="st0" d="M462,265.7c-3.6,0-7.2-0.5-10.7-1.5c-3.6-1-6.8-2.5-9.7-4.5c-2.9-2-5.1-4.5-6.9-7.5
		c-1.7-3-2.6-6.5-2.6-10.4c0-5,1-9.1,3.1-12.2c2.1-3.1,4.7-5.6,8-7.5c3.2-1.9,6.9-3.2,10.9-4.2c4-0.9,8.1-1.8,12-2.6
		c3-0.5,6-1.1,8.9-1.8c2.9-0.7,5.3-1.5,7.5-2.6c2.1-1.1,3.8-2.4,5-4c1.2-1.6,1.7-3.6,1.6-6.2c-0.8-5.4-2.3-9.7-4.5-12.8
		c-2.2-3.1-5.5-4.7-10-4.7c-2.7,0-5.1,0.7-7.3,2c-2.2,1.3-4.1,3.1-5.8,5.2c-1.7,2.1-3,4.6-4.1,7.5c-1.1,2.9-1.7,5.7-2,8.7
		l-14.1-18.5c2.7-1.3,5.3-2.6,7.9-3.7c2.6-1.1,5.3-2.1,8.2-2.9c2.9-0.8,6-1.4,9.4-1.8c3.4-0.4,7.3-0.6,11.6-0.6
		c12.2,0,21.3,2.9,27.4,8.8c6,5.8,9.1,14.4,9.1,25.7c0,4.9,0.1,9.7,0.4,14.4c0.3,4.7,0.8,9.1,1.6,13c0.8,4,2,7.4,3.5,10.3
		c1.5,2.9,3.6,5.1,6.3,6.6c-2.8,1.6-5.6,2.6-8.6,3c-2.9,0.4-5.9,0.7-9.1,0.8c-3.1,0.1-6.3,0.4-9.5,0.9c-3.2,0.5-6.4,1.5-9.6,3.1
		v-12.5c-1.3,2-3,3.8-5,5.4c-3.1,2.4-6.6,4.2-10.5,5.4C470.3,265.1,466.2,265.7,462,265.7z M489.8,210.8c-2.3,2.4-5.2,4.1-8.9,5.2
		c-3.6,1.1-7.3,2.4-10.8,4.1c-3.6,1.7-6.7,4.1-9.3,7.3c-2.6,3.2-3.9,8-3.9,14.5c0,5.4,1.7,9.6,5.2,12.5c3.4,2.9,7.2,4.4,11.3,4.4
		c3.3,0,6.3-1,9-3c2.3-1.9,4-4,5.4-6.6c1.3-2.5,2-5.4,2-8.8V210.8z"/>
	<path id="XMLID_24_" class="st0" d="M541.6,178.3c-0.3-4.4-0.8-8.3-1.6-11.7c-0.8-3.4-2-6.5-3.6-9.1c-1.6-2.6-3.6-4.6-6.2-6.1
		c3-0.9,6.2-1.6,9.6-2.1c3.3-0.5,6.6-1,9.9-1.6c3.3-0.6,6.4-1.5,9.4-2.6c2.9-1.1,5.5-2.8,7.8-5.1v73.4c0,4.9,0.1,10.1,0.4,15.6
		c0.3,5.5,0.8,10.7,1.6,15.6c0.8,4.9,2,9.3,3.5,13c1.5,3.8,3.6,6.4,6.3,7.9h-48.4c2.5-1.5,4.6-4.1,6.2-7.9s2.8-8.1,3.6-13
		c0.8-4.9,1.3-10.1,1.6-15.6c0.3-5.5,0.4-10.7,0.4-15.6v-21.3C542,187.4,541.8,182.7,541.6,178.3z"/>
	<path id="XMLID_26_" class="st0" d="M599.5,178.3c-0.3-4.4-0.8-8.3-1.6-11.7c-0.8-3.4-2-6.5-3.6-9.1c-1.6-2.6-3.6-4.6-6.2-6.1
		c3-0.9,6.2-1.6,9.6-2.1c3.3-0.5,6.6-1,9.9-1.6c3.3-0.6,6.4-1.5,9.4-2.6c2.9-1.1,5.5-2.8,7.8-5.1v73.4c0,1.3,0,2.7,0,4
		c0,1.3,0.1,2.7,0.2,4.2l21.3-21.3c2.7-2.7,4.5-5.2,5.7-7.6c1.1-2.4,1.6-4.5,1.5-6.4c-0.1-1.9-0.8-3.4-2.1-4.7
		c-1.3-1.3-2.9-2.2-4.9-2.7h40c-7.2,1.9-14,5.1-20.5,9.7c-6.5,4.6-12.9,10-19.3,16.4l-3.8,3.8l20.7,27.5c2.3,3.1,4.5,6.2,6.9,9.4
		c2.3,3.2,4.7,6.1,7.2,8.9c2.5,2.7,5,5.1,7.6,7.1c2.6,2,5.3,3.3,8.3,4h-53.5c3.3-1.3,4.8-3.9,4.6-7.9c-0.3-3.9-2.1-8.1-5.4-12.4
		l-13.9-18.7h-0.2c0.1,4.2,0.4,8.5,0.9,12.6c0.5,4.2,1.2,8,2.1,11.5c0.9,3.5,2.1,6.6,3.5,9.2s3.1,4.5,5.1,5.7h-48.4
		c2.5-1.5,4.6-4.1,6.2-7.9s2.8-8.1,3.6-13c0.8-4.9,1.3-10.1,1.6-15.6c0.3-5.5,0.4-10.7,0.4-15.6v-21.3
		C599.9,187.4,599.7,182.7,599.5,178.3z"/>
</g>
<g id="XMLID_1_">
	<path id="XMLID_2_" class="st0" d="M526.7,354.9c0,6-1.3,11.5-3.8,16.5c-2.5,5-6,9.4-10.4,13c-4.4,3.7-9.8,6.5-16,8.6
		c-6.2,2.1-13.1,3.1-20.5,3.1l-56.5,0.2c2.5-1.5,4.6-4.1,6.2-7.9c1.6-3.8,2.8-8.1,3.6-13c0.8-4.9,1.3-10.1,1.6-15.6
		c0.3-5.5,0.4-10.7,0.4-15.6v-21.3c0-4.9-0.1-10.1-0.4-15.7c-0.3-5.6-0.8-10.8-1.6-15.7c-0.8-4.9-2-9.2-3.6-12.9
		c-1.6-3.7-3.7-6.3-6.2-7.8H456c8,0,15.1,0.3,21.5,0.8c6.4,0.5,11.8,1.6,16.4,3.2s8.1,3.8,10.5,6.7c2.5,2.9,3.7,6.6,3.7,11.2
		c0,2.8-0.6,5.3-1.9,7.5c-1.3,2.2-2.9,4.1-4.9,5.9c-2,1.7-4.3,3.2-6.9,4.5c-2.6,1.3-5.1,2.4-7.7,3.3c6.5,0.5,12.2,1.9,17.1,4.2
		c4.9,2.3,9.1,5.2,12.4,8.9c3.4,3.6,5.9,7.9,7.7,12.6C525.8,344.2,526.7,349.4,526.7,354.9z M483.3,293.7c0-3.4-0.7-6.4-2.1-8.8
		c-1.4-2.4-3.3-4.3-5.8-5.9c-2.5-1.5-5.3-2.7-8.7-3.4c-3.3-0.7-6.9-1.1-10.7-1.1v50.9c3.1-4.4,6.9-7.6,11.5-9.6l0.8-0.4
		c0.1,0,0.2,0,0.3-0.1c0.1-0.1,0.2-0.1,0.3-0.1c4.8-1.9,8.4-4.4,10.7-7.7C482.1,304.4,483.3,299.8,483.3,293.7z M468.2,392.5
		c6,0,11-1,15.2-3.1c4.2-2.1,7.6-4.8,10.2-8.4c2.7-3.5,4.6-7.5,5.8-12c1.2-4.5,1.8-9.2,1.8-14.1c0-5.2-0.6-10-1.7-14.6
		c-1.1-4.6-2.7-8.6-4.7-11.9c-2-3.4-4.4-6.1-7.2-8.1c-2.8-2-5.8-3-9.2-3c-4.8,0-9.2,1.4-13.3,4.1c-4.1,2.7-7.2,6.9-9.2,12.6v58.5
		H468.2z"/>
	<path id="XMLID_6_" class="st0" d="M538.8,309c-0.3-4.4-0.8-8.3-1.6-11.7c-0.8-3.4-2-6.5-3.6-9.1s-3.6-4.6-6.2-6.1
		c3-0.9,6.2-1.6,9.6-2.1c3.3-0.5,6.6-1,9.9-1.6c3.3-0.6,6.4-1.5,9.4-2.6c2.9-1.1,5.5-2.8,7.8-5.1v73.4c0,4.9,0.1,10.1,0.4,15.6
		c0.3,5.5,0.8,10.7,1.6,15.6c0.8,4.9,2,9.3,3.5,13c1.5,3.8,3.6,6.4,6.3,7.9h-48.4c2.5-1.5,4.6-4.1,6.2-7.9c1.6-3.8,2.8-8.1,3.6-13
		c0.8-4.9,1.3-10.1,1.6-15.6c0.3-5.5,0.4-10.7,0.4-15.6v-21.3C539.2,318,539.1,313.3,538.8,309z"/>
	<path id="XMLID_8_" class="st0" d="M622,396.3c-7.4,0-14-1.1-19.7-3.4c-5.7-2.3-10.5-5.4-14.3-9.4c-3.8-4-6.8-8.6-8.8-13.8
		c-2-5.2-3-10.8-3-16.8c0-6,1-11.6,3-16.8c2-5.2,4.9-9.8,8.8-13.7c3.8-3.9,8.6-7,14.3-9.3c5.7-2.3,12.3-3.4,19.7-3.4
		c7.4,0,14,1.1,19.7,3.4c5.7,2.3,10.5,5.3,14.3,9.3c3.8,3.9,6.8,8.5,8.8,13.7c2,5.2,3,10.8,3,16.8c0,6-1,11.6-3,16.8
		c-2,5.2-4.9,9.8-8.8,13.8c-3.8,4-8.6,7.1-14.3,9.4C636,395.2,629.4,396.3,622,396.3z M622,313.5c-3.5,0-6.4,1-8.9,3.1
		c-2.5,2.1-4.5,4.9-6.3,8.5c-1.7,3.6-3,7.8-3.8,12.5s-1.2,9.9-1.2,15.3c0,5.4,0.4,10.6,1.2,15.4c0.8,4.8,2.1,9.1,3.8,12.6
		c1.7,3.6,3.8,6.4,6.3,8.5c2.5,2.1,5.4,3.1,8.9,3.1c3.3,0,6.2-1,8.8-3.1c2.5-2.1,4.6-4.9,6.4-8.5c1.7-3.6,3-7.8,3.8-12.6
		c0.8-4.8,1.2-10,1.2-15.4c0-5.4-0.4-10.5-1.2-15.3s-2.1-9-3.8-12.5c-1.7-3.6-3.8-6.4-6.4-8.5C628.2,314.6,625.3,313.5,622,313.5z"
		/>
	<path id="XMLID_13_" class="st0" d="M722.9,396.3c-7.4,0-14-1.1-19.7-3.4c-5.7-2.3-10.5-5.4-14.3-9.4c-3.8-4-6.8-8.6-8.8-13.8
		c-2-5.2-3-10.8-3-16.8c0-6,1-11.6,3-16.8c2-5.2,4.9-9.8,8.8-13.7c3.8-3.9,8.6-7,14.3-9.3c5.7-2.3,12.3-3.4,19.7-3.4
		c7.4,0,14,1.1,19.7,3.4c5.7,2.3,10.5,5.3,14.3,9.3c3.8,3.9,6.8,8.5,8.8,13.7c2,5.2,3,10.8,3,16.8c0,6-1,11.6-3,16.8
		c-2,5.2-4.9,9.8-8.8,13.8c-3.8,4-8.6,7.1-14.3,9.4C736.9,395.2,730.3,396.3,722.9,396.3z M722.9,313.5c-3.5,0-6.4,1-8.9,3.1
		c-2.5,2.1-4.5,4.9-6.3,8.5c-1.7,3.6-3,7.8-3.8,12.5s-1.2,9.9-1.2,15.3c0,5.4,0.4,10.6,1.2,15.4c0.8,4.8,2.1,9.1,3.8,12.6
		c1.7,3.6,3.8,6.4,6.3,8.5c2.5,2.1,5.4,3.1,8.9,3.1c3.3,0,6.2-1,8.8-3.1c2.5-2.1,4.6-4.9,6.4-8.5c1.7-3.6,3-7.8,3.8-12.6
		c0.8-4.8,1.2-10,1.2-15.4c0-5.4-0.4-10.5-1.2-15.3s-2.1-9-3.8-12.5c-1.7-3.6-3.8-6.4-6.4-8.5C729.1,314.6,726.2,313.5,722.9,313.5z
		"/>
	<path id="XMLID_16_" class="st0" d="M777.2,390.1c1.5-3,2.6-6.5,3.5-10.4c0.9-4,1.5-8.3,1.9-12.9c0.4-4.6,0.7-9.2,0.8-13.7
		c0-7.7-0.8-14.3-2.5-19.8c-1.7-5.5-4.7-9.5-9.1-12c3-0.9,6.2-1.6,9.5-2.1c3.3-0.5,6.6-1,9.9-1.6c3.3-0.6,6.4-1.5,9.3-2.6
		c2.9-1.1,5.5-2.8,7.7-5.1l0.2,4.8c2.7-1.9,5.5-3.1,8.6-3.8c3-0.7,6.3-1,9.7-1c13.9,0.3,23.7,4.1,29.4,11.5c3-4.4,6.7-7.4,10.9-9.1
		c4.2-1.7,9-2.5,14.1-2.5c12.1,0.1,21.1,3.1,27.2,8.9c6,5.8,9.1,14.3,9.1,25.6c0,4.9,0.1,10.1,0.4,15.6c0.3,5.5,0.8,10.7,1.6,15.6
		c0.8,4.9,2,9.3,3.5,13c1.5,3.8,3.6,6.4,6.3,7.9h-48.4c2.5-1.5,4.5-4.1,6.1-7.9c1.5-3.8,2.7-8.1,3.6-13c0.9-4.9,1.4-10.1,1.7-15.6
		c0.3-5.5,0.4-10.7,0.4-15.6c0-9.2-1.4-16.5-4.2-22c-2.8-5.5-7.2-8.3-13.1-8.3c-3.1,0-6.1,0.9-9.2,2.7c-3.1,1.8-5.6,4.5-7.8,8.1
		c3,5.3,4.6,11.8,4.6,19.5c0,4.9,0.1,10.1,0.4,15.6c0.3,5.5,0.8,10.7,1.6,15.6c0.8,4.9,2,9.3,3.5,13c1.5,3.8,3.6,6.4,6.3,7.9h-48.4
		c2.5-1.5,4.6-4.1,6.2-7.9c1.6-3.8,2.8-8.1,3.6-13c0.8-4.9,1.3-10.1,1.6-15.6c0.3-5.5,0.4-10.7,0.4-15.6c0-9.2-1.4-16.5-4.2-22
		c-2.8-5.5-7.2-8.3-13.2-8.3c-4.5,0-8.7,1.7-12.4,5v34c0,4.5,0.2,9.1,0.6,13.7c0.4,4.6,1.1,9,2,12.9s2.2,7.5,3.6,10.4
		c1.5,3,3.4,5.1,5.7,6.3h-48.4C773.9,395.1,775.7,393,777.2,390.1z"/>
</g>
<path id="XMLID_876_" class="st0" d="M486.6,365.3c1.9-1.5,3.7-1.1,5.6,0C490.4,365.3,488.5,365.3,486.6,365.3z"/>
<path id="XMLID_875_" class="st0" d="M527.8,365.3c0.9-1.2,1.9-1.5,2.8,0C529.7,365.3,528.7,365.3,527.8,365.3z"/>
<g id="XMLID_607_">
	<g id="XMLID_625_">
		<path id="XMLID_871_" class="st0" d="M64.1,299.2c-5.6-0.5-14.3-0.4-22.5-2.4c-15.1-3.8-23.2-15-23-30.7
			c0.3-23.7,4.8-46.3,19.6-65.5c7.3-9.5,16.9-15.8,29.6-15.9c7.7-0.1,14,3.1,19.6,7.8c3.9,3.2,7.5,6.7,12.1,9.6
			c-1-2.1-2.1-4.2-3.1-6.3c-4.7-9.9-5.5-20.2-2.8-30.6c2.8-10.7,10-17.6,20.5-20.5c21.7-5.9,43.5-6.8,65.2,0.1
			c8,2.5,14.8,6.9,20.5,13c10.1,10.8,11.3,23.7,3.5,38c-2,3.8-4.2,7.5-5.4,11.9c5.2-4.4,10.4-8.7,15.5-13.2
			c20.4-18.2,40.9-8.8,52.9,8.2c10.6,15.2,14.6,32.7,15.6,50.9c0.4,6.4,0.6,12.8-0.2,19.1c-2,15.7-14.3,26.3-30.7,27.1
			c-3.7,0.2-7.4,0-9.4-1.1c3,4,6,8.1,9.1,12c8.2,10.3,10.8,21.8,4.2,33.4c-12.5,22.2-29.4,40.1-53.9,49.4
			c-8.1,3.1-16.6,3.5-25.1,1.3c-10.2-2.7-16.6-9.6-19.8-19.4c-2.3-7.1-4-14.5-5.9-21.7c-0.3-1-0.6-2-1.3-4
			c-1.4,7.5-2.4,13.8-3.7,20.1c-3.8,18.3-16.2,27.6-34.8,26.7c-9.4-0.4-17.9-3.7-25.9-8.1c-16-8.7-28.9-21-39.4-35.6
			c-9.5-13.2-9-27.5,1.9-39.5C52.7,307.3,59.9,302.7,64.1,299.2z"/>
	</g>
	<g id="XMLID_614_">
		<g id="XMLID_36_">
			<g id="XMLID_37_">
				<g id="XMLID_39_">
					<path id="XMLID_40_" class="st1" d="M128.3,282.2c0,19.4,22.2,35.1,49.6,35.1c9.8,0,18.9-2,26.6-5.5
						c3.1-1.4,29.3,11.1,31.9,9.2c3.1-2.2-17.6-18.7-15.4-21.4c4.1-5.1,6.5-11.1,6.5-17.4c0-19.4-22.2-35.1-49.6-35.1
						S128.3,262.8,128.3,282.2z"/>
				</g>
				<path id="XMLID_38_" class="st2" d="M198.2,266.6c0,22-25.2,39.9-56.2,39.9c-11.1,0-21.5-2.3-30.2-6.2
					c-3.5-1.6-33.2,12.5-36.1,10.5c-3.5-2.5,20-21.3,17.5-24.3c-4.7-5.8-7.4-12.6-7.4-19.8c0-22,25.2-39.9,56.2-39.9
					S198.2,244.6,198.2,266.6z"/>
			</g>
		</g>
	</g>
</g>
</svg>
